# Exported from ProBuilder
# http://www.procore3d.com/probuilder
# 3/27/2018 3:45:21 PM

mtllib ./Gate.mtl
o Gate

g Cube-detach
v 29 5 55.5
v 29 5 55
v 29 5.5 55
v 29 5.5 55.5
v 29.5 5 55.5
v 29.5 5.5 55.5
v 29.5 5.5 55
v 29.5 5 55
v 29 5.5 55.5
v 29 5.5 55
v 29 9.580746 55
v 29 9.580746 55.5
v 29 9.580746 55.5
v 29 9.580746 55
v 29 10 55
v 29 10 55.5
v 29.5 5.5 55.5
v 29.5 9.580746 55.5
v 29.5 9.580746 55
v 29.5 5.5 55
v 29.5 9.580746 55.5
v 29.5 10 55.5
v 29.5 10 55
v 29.5 9.580746 55
v 29 5 55
v 29 5 52.98782
v 29 5.5 52.98782
v 29 5.5 55
v 29.5 5 55
v 29.5 5.5 55
v 29.5 5.5 52.98592
v 29.5 5 52.98592
v 29 5.5 55
v 29 5.5 52.98782
v 29 9.580746 52.98782
v 29 9.580746 55
v 29 9.580746 55
v 29 9.580746 52.98782
v 29 10 52.98782
v 29 10 55
v 29.5 5.5 55
v 29.5 9.580746 55
v 29.5 9.580746 52.98592
v 29.5 5.5 52.98592
v 29.5 9.580746 55
v 29.5 10 55
v 29.5 10 52.98592
v 29.5 9.580746 52.98592
v 29.5 9.580746 52.98592
v 29.5 5.5 52.98592
v 29 9.580746 52.98782
v 29 5.5 52.98782
v 29.5 10 52.98592
v 29.5 9.580746 52.98592
v 29 10 52.98782
v 29 9.580746 52.98782
v 29.5 10 55
v 29.5 10 52.98592
v 29 10 55
v 29 10 52.98782
v 29 10 55
v 29 10 55.5
v 29.5 10 55
v 29.5 10 55.5
v 29.5 5.5 55.5
v 29.5 9.580746 55.5
v 29 5.5 55.5
v 29 9.580746 55.5
v 29.5 9.580746 55.5
v 29.5 10 55.5
v 29 9.580746 55.5
v 29 10 55.5
v 29.5 5 55.5
v 29.5 5.5 55.5
v 29 5 55.5
v 29 5.5 55.5
v 29.5 5.5 52.98592
v 29.5 5 52.98592
v 29 5.5 52.98782
v 29 5 52.98782

vn -1 0 0
vn -1 0 0
vn -1 0 0
vn -1 0 0
vn 1 0 0
vn 1 0 0
vn 1 0 0
vn 1 0 0
vn -1 0 0
vn -1 0 0
vn -1 0 0
vn -1 0 0
vn -1 0 0
vn -1 0 0
vn -1 0 0
vn -1 0 0
vn 1 0 0
vn 1 0 0
vn 1 0 0
vn 1 0 0
vn 1 0 0
vn 1 0 0
vn 1 0 0
vn 1 0 0
vn -1 0 0
vn -1 0 0
vn -1 0 0
vn -1 0 0
vn 1 0 0
vn 1 0 0
vn 1 0 0
vn 1 0 0
vn -1 0 0
vn -1 0 0
vn -1 0 0
vn -1 0 0
vn -0.9999999 0 0
vn -0.9999999 0 0
vn -0.9999999 0 0
vn -0.9999999 0 0
vn 1 0 0
vn 1 0 0
vn 1 0 0
vn 1 0 0
vn 1 0 0
vn 1 0 0
vn 1 0 0
vn 1 0 0
vn -0.003810855 0 -0.9999927
vn -0.003810855 0 -0.9999927
vn -0.003810855 0 -0.9999927
vn -0.003810855 0 -0.9999927
vn -0.003810855 0 -0.9999928
vn -0.003810855 0 -0.9999928
vn -0.003810855 0 -0.9999928
vn -0.003810855 0 -0.9999928
vn 0 1 0
vn 0 1 0
vn 0 1 0
vn 0 1 0
vn 0 1 0
vn 0 1 0
vn 0 1 0
vn 0 1 0
vn 0 0 1
vn 0 0 1
vn 0 0 1
vn 0 0 1
vn 0 0 1
vn 0 0 1
vn 0 0 1
vn 0 0 1
vn 0 0 1
vn 0 0 1
vn 0 0 1
vn 0 0 1
vn -0.003810855 0 -0.9999927
vn -0.003810855 0 -0.9999927
vn -0.003810855 0 -0.9999927
vn -0.003810855 0 -0.9999927

vt 1.5 0
vt 1 0
vt 1 0.5
vt 1.5 0.5
vt 1.5 0
vt 1.5 0.5
vt 1 0.5
vt 1 0
vt 1.5 0.5
vt 1 0.5
vt 1 4.580746
vt 1.5 4.580746
vt 1.5 4.580746
vt 1 4.580746
vt 1 5
vt 1.5 5
vt 1.5 0.5
vt 1.5 4.580746
vt 1 4.580746
vt 1 0.5
vt 1.5 4.580746
vt 1.5 5
vt 1 5
vt 1 4.580746
vt 1 0
vt -1.012177 0
vt -1.012177 0.5
vt 1 0.5
vt 1 0
vt 1 0.5
vt -1.014082 0.5
vt -1.014082 0
vt 3.260003 2.03028
vt 2.756959 2.03028
vt 2.756959 3.050466
vt 3.260003 3.050466
vt 1 4.580746
vt -1.012177 4.580746
vt -1.012177 5
vt 1 5
vt -0.2588013 6.900137
vt -0.2588013 7.920324
vt 0.2447191 7.920324
vt 0.2447191 6.900137
vt 1 4.580746
vt 1 5
vt -1.014082 5
vt -1.014082 4.580746
vt -0.003864519 4.580746
vt -0.003864519 0.5
vt 0.4961391 4.580746
vt 0.4961391 0.5
vt -0.003864519 5
vt -0.003864519 4.580746
vt 0.4961391 5
vt 0.4961391 4.580746
vt 0 1
vt 0 -1.014082
vt 0.5 1
vt 0.5 -1.012177
vt 0.5 1
vt 0.5 1.5
vt 0 1
vt 0 1.5
vt 0 0.5
vt 0 4.580746
vt -0.5 0.5
vt -0.5 4.580746
vt 0 4.580746
vt 0 5
vt -0.5 4.580746
vt -0.5 5
vt 0 0
vt 0 0.5
vt -0.5 0
vt -0.5 0.5
vt -0.003864519 0.5
vt -0.003864519 0
vt 0.4961391 0.5
vt 0.4961391 0

g Cube-detach_0
usemtl Wall_Texture
f 4/4/4 3/3/3 2/2/2 1/1/1
f 8/8/8 7/7/7 6/6/6 5/5/5
f 12/12/12 11/11/11 10/10/10 9/9/9
f 16/16/16 15/15/15 14/14/14 13/13/13
f 20/20/20 19/19/19 18/18/18 17/17/17
f 24/24/24 23/23/23 22/22/22 21/21/21
f 28/28/28 27/27/27 26/26/26 25/25/25
f 32/32/32 31/31/31 30/30/30 29/29/29
f 40/40/40 39/39/39 38/38/38 37/37/37
f 48/48/48 47/47/47 46/46/46 45/45/45
f 56/56/56 55/55/55 53/53/53 54/54/54
f 60/60/60 59/59/59 57/57/57 58/58/58
f 64/64/64 63/63/63 61/61/61 62/62/62
f 68/68/68 67/67/67 65/65/65 66/66/66
f 72/72/72 71/71/71 69/69/69 70/70/70
f 76/76/76 75/75/75 73/73/73 74/74/74
f 80/80/80 79/79/79 77/77/77 78/78/78

g Cube-detach_1
usemtl Mayan_Ornament_Mat
f 36/36/36 35/35/35 34/34/34 33/33/33
f 44/44/44 43/43/43 42/42/42 41/41/41
f 52/52/52 51/51/51 49/49/49 50/50/50

