# Exported from ProBuilder
# http://www.procore3d.com/probuilder
# 4/1/2018 10:00:50 PM

mtllib ./ExitDoor.mtl
o ExitDoor

g Door
v 43.94564 107.7128 -78.22871
v 42.94582 107.7128 -78.20992
v 42.49548 108.2342 -83.65002
v 43.4953 108.2342 -83.66882
v 42.49548 108.2342 -83.65002
v 42.04434 107.9178 -89.37038
v 43.04416 107.9178 -89.38919
v 43.4953 108.2342 -83.66882
v 43.38718 96.5 -89.69174
v 42.38735 96.5 -89.67294
v 42.49548 96.5 -83.73116
v 43.4953 96.5 -83.74995
v 42.49548 96.5 -83.73116
v 42.6036 96.5 -77.98217
v 43.60342 96.5 -78.00097
v 43.4953 96.5 -83.74995
v 43.94564 107.7128 -78.22871
v 43.86009 104.9096 -78.06696
v 42.86026 104.9096 -78.04815
v 42.94582 107.7128 -78.20992
v 43.86009 104.9096 -78.06696
v 43.77453 102.1064 -77.97289
v 42.77471 102.1064 -77.95409
v 42.86026 104.9096 -78.04815
v 42.04434 107.9178 -89.37038
v 42.13009 105.0634 -89.57478
v 43.12991 105.0634 -89.59358
v 43.04416 107.9178 -89.38919
v 42.13009 105.0634 -89.57478
v 42.21585 102.2089 -89.69263
v 43.21567 102.2089 -89.71144
v 43.12991 105.0634 -89.59358
v 42.77471 102.1064 -77.95409
v 42.49548 102.3671 -83.69059
v 42.49548 105.3006 -83.6703
v 42.86026 104.9096 -78.04815
v 42.49548 105.3006 -83.6703
v 42.49548 108.2342 -83.65002
v 42.94582 107.7128 -78.20992
v 42.86026 104.9096 -78.04815
v 42.49548 108.2342 -83.65002
v 42.49548 105.3006 -83.6703
v 42.13009 105.0634 -89.57478
v 42.04434 107.9178 -89.37038
v 42.49548 105.3006 -83.6703
v 42.49548 102.3671 -83.69059
v 42.21585 102.2089 -89.69263
v 42.13009 105.0634 -89.57478
v 43.04416 107.9178 -89.38919
v 43.12991 105.0634 -89.59358
v 43.4953 105.3006 -83.68911
v 43.4953 108.2342 -83.66882
v 43.12991 105.0634 -89.59358
v 43.21567 102.2089 -89.71144
v 43.4953 102.3671 -83.70939
v 43.4953 105.3006 -83.68911
v 43.4953 108.2342 -83.66882
v 43.4953 105.3006 -83.68911
v 43.86009 104.9096 -78.06696
v 43.94564 107.7128 -78.22871
v 43.4953 105.3006 -83.68911
v 43.4953 102.3671 -83.70939
v 43.77453 102.1064 -77.97289
v 43.86009 104.9096 -78.06696
v 43.77453 102.1064 -77.97289
v 43.68898 99.30319 -77.95636
v 42.68916 99.30319 -77.93755
v 42.77471 102.1064 -77.95409
v 43.68898 99.30319 -77.95636
v 43.60342 96.5 -78.00097
v 42.6036 96.5 -77.98217
v 42.68916 99.30319 -77.93755
v 42.21585 102.2089 -89.69263
v 42.3016 99.35446 -89.69547
v 43.30142 99.35446 -89.71427
v 43.21567 102.2089 -89.71144
v 42.3016 99.35446 -89.69547
v 42.38735 96.5 -89.67294
v 43.38718 96.5 -89.69174
v 43.30142 99.35446 -89.71427
v 42.6036 96.5 -77.98217
v 42.49548 96.5 -83.73116
v 42.49548 99.43354 -83.71087
v 42.68916 99.30319 -77.93755
v 42.49548 99.43354 -83.71087
v 42.49548 102.3671 -83.69059
v 42.77471 102.1064 -77.95409
v 42.68916 99.30319 -77.93755
v 42.49548 102.3671 -83.69059
v 42.49548 99.43354 -83.71087
v 42.3016 99.35446 -89.69547
v 42.21585 102.2089 -89.69263
v 42.49548 99.43354 -83.71087
v 42.49548 96.5 -83.73116
v 42.38735 96.5 -89.67294
v 42.3016 99.35446 -89.69547
v 43.21567 102.2089 -89.71144
v 43.30142 99.35446 -89.71427
v 43.4953 99.43354 -83.72968
v 43.4953 102.3671 -83.70939
v 43.30142 99.35446 -89.71427
v 43.38718 96.5 -89.69174
v 43.4953 96.5 -83.74995
v 43.4953 99.43354 -83.72968
v 43.4953 102.3671 -83.70939
v 43.4953 99.43354 -83.72968
v 43.68898 99.30319 -77.95636
v 43.77453 102.1064 -77.97289
v 43.4953 99.43354 -83.72968
v 43.4953 96.5 -83.74995
v 43.60342 96.5 -78.00097
v 43.68898 99.30319 -77.95636

vn 0.001791583 0.9954509 0.09525944
vn 0.001791583 0.9954509 0.09525945
vn 0.001791583 0.9954509 0.09525944
vn 0.001791583 0.9954509 0.09525944
vn -0.001036858 0.9984786 -0.05513034
vn -0.001036858 0.9984786 -0.05513033
vn -0.001036858 0.9984786 -0.05513033
vn -0.001036858 0.9984786 -0.05513033
vn 0 -1 0
vn 0 -1 0
vn 0 -1 0
vn 0 -1 0
vn 0 -1 0
vn 0 -1 0
vn 0 -1 0
vn 0 -1 0
vn 0.01877347 0.05703039 0.998196
vn 0.01877347 0.05703039 0.998196
vn 0.01877347 0.05703039 0.998196
vn 0.01877347 0.05703039 0.998196
vn 0.01879386 0.03295782 0.99928
vn 0.01879386 0.03295782 0.99928
vn 0.01879386 0.03295782 0.99928
vn 0.01879386 0.03295782 0.99928
vn -0.01875682 0.07084907 -0.9973106
vn -0.01875682 0.07084907 -0.9973106
vn -0.01875682 0.07084907 -0.9973106
vn -0.01875682 0.07084907 -0.9973106
vn -0.01878851 0.04068249 -0.9989954
vn -0.01878851 0.0406825 -0.9989954
vn -0.01878851 0.04068249 -0.9989954
vn -0.01878851 0.0406825 -0.9989954
vn -0.9982235 0.01562653 0.05749473
vn -0.9988182 -0.0003360374 0.04860384
vn -0.9982235 0.01562653 0.05749473
vn -0.9972191 0.03268323 0.06697699
vn -0.9979036 -0.0004474399 0.06471699
vn -0.9970549 0.01671561 0.07484762
vn -0.9956843 0.03534096 0.08581212
vn -0.9970549 0.01671561 0.07484762
vn -0.9973304 -0.01752782 0.07088635
vn -0.9980896 -0.0004271435 0.06178134
vn -0.9973304 -0.01752782 0.07088635
vn -0.9961128 -0.03569166 0.08053208
vn -0.9983775 -0.01609522 0.05461965
vn -0.998916 -0.0003218128 0.04654703
vn -0.9983775 -0.01609522 0.05461965
vn -0.9974798 -0.03256874 0.06303501
vn 0.9973305 0.01752784 -0.07088646
vn 0.9974108 0.03448299 -0.06310777
vn 0.9973305 0.01752784 -0.07088646
vn 0.996902 0.0005437894 -0.07865088
vn 0.9983775 0.01609528 -0.05461976
vn 0.9983671 0.03194807 -0.04735491
vn 0.9983775 0.01609528 -0.05461976
vn 0.9980896 0.0004271699 -0.06178145
vn 0.9970549 -0.01671558 -0.07484759
vn 0.9979036 0.0004474567 -0.06471696
vn 0.9970549 -0.01671558 -0.07484759
vn 0.9956844 -0.03534092 -0.08581206
vn 0.9982235 -0.01562651 -0.0574947
vn 0.9988182 0.0003360498 -0.04860382
vn 0.9982235 -0.01562651 -0.0574947
vn 0.9972191 -0.03268318 -0.06697695
vn 0.01880381 0.005321494 0.999809
vn 0.01880381 0.005321494 0.999809
vn 0.01880381 0.005321494 0.999809
vn 0.01880381 0.005321494 0.999809
vn 0.01880152 -0.01648367 0.9996873
vn 0.01880152 -0.01648367 0.9996873
vn 0.01880152 -0.01648367 0.9996873
vn 0.01880152 -0.01648367 0.9996873
vn -0.01880407 0.000426478 -0.999823
vn -0.01880407 0.000426478 -0.999823
vn -0.01880407 0.000426478 -0.999823
vn -0.01880408 0.000426478 -0.9998231
vn -0.0188034 -0.008456426 -0.9997874
vn -0.0188034 -0.008456426 -0.9997874
vn -0.0188034 -0.008456426 -0.9997874
vn -0.0188034 -0.008456426 -0.9997874
vn -0.9995462 0.01460879 0.02634625
vn -0.9998232 -0.0001299967 0.01880408
vn -0.9995462 0.01460879 0.02634625
vn -0.9989668 0.02994501 0.03418865
vn -0.9994379 -0.0002317641 0.03352313
vn -0.9990257 0.01487184 0.04155298
vn -0.9982759 0.03076274 0.04999074
vn -0.9990257 0.01487184 0.04155298
vn -0.9990972 -0.0149611 0.03976325
vn -0.9994755 -0.0002238742 0.03238188
vn -0.9990972 -0.0149611 0.03976325
vn -0.9984286 -0.03004154 0.04730745
vn -0.9995676 -0.01479936 0.02540919
vn -0.9998345 -0.0001257795 0.01819413
vn -0.9995676 -0.01479936 0.02540919
vn -0.9990205 -0.02975375 0.03275734
vn 0.9990972 0.01496115 -0.03976332
vn 0.9990115 0.03004472 -0.03276094
vn 0.9990972 0.01496115 -0.03976332
vn 0.998916 0.0003218311 -0.04654711
vn 0.9995676 0.01479944 -0.02540921
vn 0.999388 0.02987994 -0.01818599
vn 0.9995676 0.01479944 -0.02540921
vn 0.9994755 0.0002238898 -0.03238192
vn 0.9990257 -0.01487182 -0.04155296
vn 0.9994379 0.0002317811 -0.03352312
vn 0.9990257 -0.01487182 -0.04155296
vn 0.9982759 -0.03076272 -0.04999073
vn 0.9995462 -0.01460876 -0.02634625
vn 0.9998232 0.000130013 -0.01880408
vn 0.9995462 -0.01460876 -0.02634625
vn 0.9989666 -0.02994497 -0.03418864

vt -0.2949191 5.085978
vt 0.7050699 5.086056
vt 1.05543 -0.3696588
vt 0.05544078 -0.3697374
vt 1.05543 -0.3696588
vt 1.397464 -6.091216
vt 0.3974752 -6.091294
vt 0.05544078 -0.3697374
vt -0.003625472 -6.192768
vt 0.9963746 -6.192768
vt 1 -0.25
vt 0 -0.25
vt 1 -0.25
vt 1 5.5
vt 0 5.5
vt 0 -0.25
vt 0.3453389 11.10754
vt 0.2567236 8.301754
vt -0.7432761 8.301758
vt -0.6546606 11.10754
vt 0.2567236 8.301754
vt 0.1693956 5.497293
vt -0.8306042 5.497297
vt -0.7432761 8.301758
vt -1.343274 11.27225
vt -1.253633 8.413724
vt -0.2536334 8.413731
vt -0.3432752 11.27225
vt -1.253633 8.413724
vt -1.165644 5.55729
vt -0.1656446 5.557297
vt -0.2536334 8.413731
vt 5.504897 5.606785
vt -0.2383952 5.867487
vt -0.2181357 8.801028
vt 5.415032 8.409939
vt -0.2181357 8.801028
vt -0.1978763 11.73457
vt 5.257542 11.21309
vt 5.415032 8.409939
vt -0.1978763 11.73457
vt -0.2181357 8.801028
vt -6.133331 8.563826
vt -5.93327 11.41833
vt -0.2181357 8.801028
vt -0.2383952 5.867487
vt -6.246952 5.709327
vt -6.133331 8.563826
vt -5.904251 11.41792
vt -6.104311 8.563416
vt -0.1891164 8.800619
vt -0.1688569 11.73416
vt -6.104311 8.563416
vt -6.217933 5.708918
vt -0.2093758 5.867078
vt -0.1891164 8.800619
vt -0.1688569 11.73416
vt -0.1891164 8.800619
vt 5.444051 8.40953
vt 5.286561 11.21268
vt -0.1891164 8.800619
vt -0.2093758 5.867078
vt 5.533916 5.606376
vt 5.444051 8.40953
vt 0.1693956 5.497293
vt 0.08354185 2.694346
vt -0.916458 2.69435
vt -0.8306042 5.497297
vt 0.08354185 2.694346
vt -0.001149552 -0.1074067
vt -1.00115 -0.1074026
vt -0.916458 2.69435
vt -1.165644 5.55729
vt -1.079852 2.70363
vt -0.07985263 2.703637
vt -0.1656446 5.557297
vt -1.079852 2.70363
vt -0.9945452 -0.1494179
vt 0.005454777 -0.1494108
vt -0.07985263 2.703637
vt 5.468665 0.0004745545
vt -0.2789141 0.0004062438
vt -0.2586546 2.933947
vt 5.517316 2.803631
vt -0.2586546 2.933947
vt -0.2383952 5.867487
vt 5.504897 5.606785
vt 5.517316 2.803631
vt -0.2383952 5.867487
vt -0.2586546 2.933947
vt -6.245679 2.85483
vt -6.246952 5.709327
vt -0.2586546 2.933947
vt -0.2789141 0.0004062438
vt -6.219074 0.0003341594
vt -6.245679 2.85483
vt -6.217933 5.708918
vt -6.21666 2.854421
vt -0.2296353 2.933537
vt -0.2093758 5.867078
vt -6.21666 2.854421
vt -6.190055 -7.506111E-05
vt -0.2498947 -2.970295E-06
vt -0.2296353 2.933537
vt -0.2093758 5.867078
vt -0.2296353 2.933537
vt 5.546336 2.803221
vt 5.533916 5.606376
vt -0.2296353 2.933537
vt -0.2498947 -2.970295E-06
vt 5.497684 6.534648E-05
vt 5.546336 2.803221

g Door
usemtl Wall_Texture
f 2/2/2 1/1/1 4/4/4 3/3/3
f 5/5/5 8/8/8 7/7/7 6/6/6
f 9/9/9 12/12/12 11/11/11 10/10/10
f 16/16/16 15/15/15 14/14/14 13/13/13
f 20/20/20 19/19/19 18/18/18 17/17/17
f 24/24/24 23/23/23 22/22/22 21/21/21
f 28/28/28 27/27/27 26/26/26 25/25/25
f 32/32/32 31/31/31 30/30/30 29/29/29
f 36/36/36 35/35/35 34/34/34 33/33/33
f 39/39/39 38/38/38 37/37/37 40/40/40
f 44/44/44 43/43/43 42/42/42 41/41/41
f 48/48/48 47/47/47 46/46/46 45/45/45
f 52/52/52 51/51/51 50/50/50 49/49/49
f 56/56/56 55/55/55 54/54/54 53/53/53
f 60/60/60 59/59/59 58/58/58 57/57/57
f 64/64/64 63/63/63 62/62/62 61/61/61
f 68/68/68 67/67/67 66/66/66 65/65/65
f 72/72/72 71/71/71 70/70/70 69/69/69
f 76/76/76 75/75/75 74/74/74 73/73/73
f 79/79/79 78/78/78 77/77/77 80/80/80
f 84/84/84 83/83/83 82/82/82 81/81/81
f 87/87/87 86/86/86 85/85/85 88/88/88
f 92/92/92 91/91/91 90/90/90 89/89/89
f 96/96/96 95/95/95 94/94/94 93/93/93
f 100/100/100 99/99/99 98/98/98 97/97/97
f 104/104/104 103/103/103 102/102/102 101/101/101
f 108/108/108 107/107/107 106/106/106 105/105/105
f 112/112/112 111/111/111 110/110/110 109/109/109

