# Exported from ProBuilder
# http://www.procore3d.com/probuilder
# 3/26/2018 1:09:48 AM

mtllib ./HiddenWall.mtl
o HiddenWall

g Cube
v 56.47779 97.69805 -63.50387
v 55.63929 97.69805 -64.04876
v 56.47779 98.9725 -63.50387
v 55.63929 98.9725 -64.04876
v 55.63929 97.69805 -64.04876
v 57.40589 97.69805 -66.72688
v 55.63929 98.9725 -64.04876
v 57.40589 98.9725 -66.72688
v 57.40589 97.69805 -66.72688
v 58.2444 97.69805 -66.18198
v 57.40589 98.9725 -66.72688
v 58.2444 98.9725 -66.18198
v 58.2444 97.69805 -66.18198
v 56.47779 97.69805 -63.50387
v 58.2444 98.9725 -66.18198
v 56.47779 98.9725 -63.50387
v 56.47779 98.9725 -63.50387
v 55.63929 98.9725 -64.04876
v 58.2444 98.9725 -66.18198
v 57.40589 98.9725 -66.72688
v 58.2444 97.69805 -66.18198
v 57.40589 97.69805 -66.72688
v 56.47779 97.69805 -63.50387
v 55.63929 97.69805 -64.04876

vn -0.5448877 0 0.838509
vn -0.5448877 0 0.838509
vn -0.5448877 0 0.838509
vn -0.5448877 0 0.838509
vn -0.8347459 0 -0.5506355
vn -0.8347459 0 -0.5506355
vn -0.8347459 0 -0.5506355
vn -0.8347459 0 -0.5506355
vn 0.5448877 0 -0.838509
vn 0.5448877 0 -0.838509
vn 0.5448877 0 -0.838509
vn 0.5448877 0 -0.838509
vn 0.8347459 0 0.5506354
vn 0.8347459 0 0.5506354
vn 0.8347459 0 0.5506354
vn 0.8347459 0 0.5506354
vn 0 0.9999999 0
vn 0 1 0
vn 0 1 0
vn 0 0.9999999 0
vn 0 -1 0
vn 0 -1 0
vn 0 -0.9999999 0
vn 0 -1 0

vt -0.0008643984 -0.08895111
vt -1.000864 -0.08895111
vt -0.0008643984 1.185501
vt -1.000864 1.185501
vt 1.464902 -0.08895111
vt -1.743394 -0.08895111
vt 1.464902 1.185501
vt -1.743394 1.185501
vt 0.9788234 -0.08895111
vt -0.02117651 -0.08895111
vt 0.9788234 1.185501
vt -0.02117651 1.185501
vt 1.750265 -0.08895111
vt -1.458032 -0.08895111
vt 1.750265 1.185501
vt -1.458032 1.185501
vt 0.0008643984 1.458061
vt 1.000864 1.458061
vt -0.02117651 -1.75016
vt 0.9788234 -1.75016
vt 0.02117651 -1.75016
vt -0.9788234 -1.75016
vt -0.0008643984 1.458061
vt -1.000864 1.458061

g Cube_0
usemtl Default_Prototype
f 3/3/3 4/4/4 2/2/2 1/1/1
f 11/11/11 12/12/12 10/10/10 9/9/9
f 19/19/19 20/20/20 18/18/18 17/17/17

g Cube_1
usemtl Wall_Texture
f 7/7/7 8/8/8 6/6/6 5/5/5
f 15/15/15 16/16/16 14/14/14 13/13/13
f 23/23/23 24/24/24 22/22/22 21/21/21

