# Exported from ProBuilder
# http://www.procore3d.com/probuilder
# 4/1/2018 11:07:45 PM

mtllib ./HiddenWall2.mtl
o HiddenWall2

g Cube
v 61.65193 101.7498 -113.9663
v 58.90502 101.7498 -112.8793
v 61.65193 103.9021 -113.9663
v 58.90502 103.9021 -112.8793
v 58.90502 101.7498 -112.8793
v 58.53142 101.7498 -113.8069
v 58.90502 103.9021 -112.8793
v 58.53142 103.9021 -113.8069
v 58.53142 101.7498 -113.8069
v 61.27832 101.7498 -114.8939
v 58.53142 103.9021 -113.8069
v 61.27832 103.9021 -114.8939
v 61.27832 101.7498 -114.8939
v 61.65193 101.7498 -113.9663
v 61.27832 103.9021 -114.8939
v 61.65193 103.9021 -113.9663
v 61.65193 103.9021 -113.9663
v 58.90502 103.9021 -112.8793
v 61.27832 103.9021 -114.8939
v 58.53142 103.9021 -113.8069
v 61.27832 101.7498 -114.8939
v 58.53142 101.7498 -113.8069
v 61.65193 101.7498 -113.9663
v 58.90502 101.7498 -112.8793

vn 0.3679613 0 0.929841
vn 0.3679613 0 0.929841
vn 0.3679613 0 0.929841
vn 0.3679613 0 0.929841
vn -0.927589 0 0.3736022
vn -0.927589 0 0.3736022
vn -0.927589 0 0.3736022
vn -0.927589 0 0.3736022
vn -0.3679613 0 -0.9298411
vn -0.3679613 0 -0.9298411
vn -0.3679613 0 -0.9298411
vn -0.3679613 0 -0.9298411
vn 0.927589 0 -0.3736022
vn 0.927589 0 -0.3736022
vn 0.927589 0 -0.3736022
vn 0.927589 0 -0.3736022
vn 0 1 0
vn 0 1 0
vn 0 1 0
vn 0 1 0
vn 0 -1 0
vn 0 -1 0
vn 0 -1 0
vn 0 -1 0

vt 0.4474329 -0.5701523
vt -2.506734 -0.5701523
vt 0.4474329 1.582054
vt -2.506734 1.582054
vt -0.0008550077 -0.5701523
vt -1.000855 -0.5701523
vt -0.0008550077 1.582054
vt -1.000855 1.582054
vt 2.512808 -0.5701523
vt -0.441359 -0.5701523
vt 2.512808 1.582054
vt -0.441359 1.582054
vt 0.9829119 -0.5701523
vt -0.01708799 -0.5701523
vt 0.9829119 1.582054
vt -0.01708799 1.582054
vt -0.4473374 0.01708799
vt 2.506775 -0.0008550077
vt -0.4473374 -0.9829119
vt 2.506775 -1.000855
vt 0.4473374 -0.9829119
vt -2.506775 -1.000855
vt 0.4473374 0.01708799
vt -2.506775 -0.0008550077

g Cube
usemtl Default_Prototype
f 3/3/3 4/4/4 2/2/2 1/1/1
f 7/7/7 8/8/8 6/6/6 5/5/5
f 11/11/11 12/12/12 10/10/10 9/9/9
f 15/15/15 16/16/16 14/14/14 13/13/13
f 19/19/19 20/20/20 18/18/18 17/17/17
f 23/23/23 24/24/24 22/22/22 21/21/21

