# Exported from ProBuilder
# http://www.procore3d.com/probuilder
# 4/2/2018 12:00:31 AM

mtllib ./HiddenWall3.mtl
o HiddenWall3

g Cube
v 94.2946 98.101 -64.66814
v 92.21083 98.101 -62.59565
v 94.2946 99.90767 -64.66814
v 92.21083 99.90767 -62.59565
v 92.21083 98.101 -62.59565
v 91.51298 98.101 -63.31189
v 92.21083 99.90767 -62.59565
v 91.51298 99.90767 -63.31189
v 91.51298 98.101 -63.31189
v 93.59675 98.101 -65.38438
v 91.51298 99.90767 -63.31189
v 93.59675 99.90767 -65.38438
v 93.59675 98.101 -65.38438
v 94.2946 98.101 -64.66814
v 93.59675 99.90767 -65.38438
v 94.2946 99.90767 -64.66814
v 94.2946 99.90767 -64.66814
v 92.21083 99.90767 -62.59565
v 93.59675 99.90767 -65.38438
v 91.51298 99.90767 -63.31189
v 93.59675 98.101 -65.38438
v 91.51298 98.101 -63.31189
v 94.2946 98.101 -64.66814
v 92.21083 98.101 -62.59565

vn 0.7051849 0 0.7090235
vn 0.7051849 0 0.7090235
vn 0.7051849 0 0.7090235
vn 0.7051849 0 0.7090235
vn -0.7162374 0 0.6978566
vn -0.7162374 0 0.6978566
vn -0.7162374 0 0.6978566
vn -0.7162374 0 0.6978566
vn -0.7051848 0 -0.7090236
vn -0.7051848 0 -0.7090236
vn -0.7051848 0 -0.7090236
vn -0.7051848 0 -0.7090236
vn 0.7162375 0 -0.6978567
vn 0.7162375 0 -0.6978567
vn 0.7162375 0 -0.6978567
vn 0.7162375 0 -0.6978567
vn 0 1 0
vn 0 1 0
vn 0 1 0
vn 0 1 0
vn 0 -1 0
vn 0 -1 0
vn 0 -1 0
vn 0 -1 0

vt 0.9608703 0
vt -1.978056 0
vt 0.9608703 1.806671
vt -1.978056 1.806671
vt 0.01225151 0
vt -0.9877483 0
vt 0.01225151 1.806671
vt -0.9877483 1.806671
vt 1.967773 0
vt -0.9711533 0
vt 1.967773 1.806671
vt -0.9711533 1.806671
vt 1.017969 0
vt 0.01796952 0
vt 1.017969 1.806671
vt 0.01796952 1.806671
vt -0.9607363 -0.01796952
vt 1.978034 0.01225151
vt -0.9607363 -1.017969
vt 1.978034 -0.9877483
vt 0.9607363 -1.017969
vt -1.978034 -0.9877483
vt 0.9607363 -0.01796952
vt -1.978034 0.01225151

g Cube
usemtl Default_Prototype
f 3/3/3 4/4/4 2/2/2 1/1/1
f 7/7/7 8/8/8 6/6/6 5/5/5
f 11/11/11 12/12/12 10/10/10 9/9/9
f 15/15/15 16/16/16 14/14/14 13/13/13
f 19/19/19 20/20/20 18/18/18 17/17/17
f 23/23/23 24/24/24 22/22/22 21/21/21

