# Exported from ProBuilder
# http://www.procore3d.com/probuilder
# 3/31/2018 9:06:44 PM

mtllib ./DoorEntrancePuzzle1.mtl
o DoorEntrancePuzzle1

g Pipe-detach
v 44.8264 10 50.69526
v 44.8264 10 49.15017
v 44.8264 17.77452 50.69526
v 44.8264 17.77452 49.15017
v 45.77745 10 49.32185
v 45.77745 10 50.79826
v 45.77745 17.77452 49.32185
v 45.77745 17.77452 50.79826
v 44.8264 10 52.24035
v 44.8264 10 50.69526
v 44.8264 17.77452 52.24035
v 44.8264 17.77452 50.69526
v 45.77745 10 50.79826
v 45.77745 10 52.27468
v 45.77745 17.77452 50.79826
v 45.77745 17.77452 52.27468
v 45.77745 10 52.27468
v 45.77745 10 53.75109
v 45.77745 17.77452 52.27468
v 45.77745 17.77452 53.75109
v 44.8264 10 53.78543
v 44.8264 10 52.24035
v 44.8264 17.77452 53.78543
v 44.8264 17.77452 52.24035
v 45.77745 10 53.75109
v 45.77745 10 55.22751
v 45.77745 17.77452 53.75109
v 45.77745 17.77452 55.22751
v 44.8264 10 55.33051
v 44.8264 10 53.78543
v 44.8264 17.77452 55.33051
v 44.8264 17.77452 53.78543
v 45.77745 10 55.22751
v 45.77745 10 56.70392
v 45.77745 17.77452 55.22751
v 45.77745 17.77452 56.70392
v 44.8264 10 56.8756
v 44.8264 10 55.33051
v 44.8264 17.77452 56.8756
v 44.8264 17.77452 55.33051
v 45.77745 17.77452 55.22751
v 45.77745 17.77452 53.75109
v 44.8264 17.77452 55.33051
v 44.8264 17.77452 53.78543
v 45.77745 17.77452 56.70392
v 45.77745 17.77452 55.22751
v 44.8264 17.77452 56.8756
v 44.8264 17.77452 55.33051
v 45.77745 17.77452 53.75109
v 45.77745 17.77452 52.27468
v 44.8264 17.77452 53.78543
v 44.8264 17.77452 52.24035
v 45.77745 17.77452 52.27468
v 45.77745 17.77452 50.79826
v 44.8264 17.77452 52.24035
v 44.8264 17.77452 50.69526
v 45.77745 17.77452 50.79826
v 45.77745 17.77452 49.32185
v 44.8264 17.77452 50.69526
v 44.8264 17.77452 49.15017

vn -1 0 1.788139E-07
vn -1 0 1.788139E-07
vn -1 0 1.788139E-07
vn -1 0 1.788139E-07
vn 1 0 -1.788139E-07
vn 1 0 -1.788139E-07
vn 1 0 -1.788139E-07
vn 1 0 -1.788139E-07
vn -1 0 1.788139E-07
vn -1 0 1.788139E-07
vn -1 0 1.788139E-07
vn -1 0 1.788139E-07
vn 1 0 -1.788139E-07
vn 1 0 -1.788139E-07
vn 1 0 -1.788139E-07
vn 1 0 -1.788139E-07
vn 1 0 -1.788139E-07
vn 1 0 -1.788139E-07
vn 1 0 -1.788139E-07
vn 1 0 -1.788139E-07
vn -1 0 1.788139E-07
vn -1 0 1.788139E-07
vn -1 0 1.788139E-07
vn -1 0 1.788139E-07
vn 1 0 -1.788139E-07
vn 1 0 -1.788139E-07
vn 1 0 -1.788139E-07
vn 1 0 -1.788139E-07
vn -1 0 1.788139E-07
vn -1 0 1.788139E-07
vn -1 0 1.788139E-07
vn -1 0 1.788139E-07
vn 1 0 -1.788139E-07
vn 1 0 -1.788139E-07
vn 1 0 -1.788139E-07
vn 1 0 -1.788139E-07
vn -1 0 1.788139E-07
vn -1 0 1.788139E-07
vn -1 0 1.788139E-07
vn -1 0 1.788139E-07
vn 0 1 0
vn 0 1 0
vn 0 1 0
vn 0 0.9999999 0
vn 0 1 0
vn 0 1 0
vn 0 1 0
vn 0 1 0
vn 0 1 0
vn 0 1 0
vn 0 1 0
vn 0 1 0
vn 0 1 0
vn 0 1 0
vn 0 1 0
vn 0 1 0
vn 0 1 0
vn 0 1 0
vn 0 1 0
vn 0 1 0

vt 15.88525 2
vt 14.34017 2
vt 15.88525 9.774525
vt 14.34017 9.774525
vt -14.51185 2
vt -15.98826 2
vt -14.51185 9.774525
vt -15.98826 9.774525
vt 17.43034 2
vt 15.88525 2
vt 17.43034 9.774525
vt 15.88525 9.774525
vt -15.98826 2
vt -17.46468 2
vt -15.98826 9.774525
vt -17.46468 9.774525
vt -17.46468 2
vt -18.94109 2
vt -17.46468 9.774525
vt -18.94109 9.774525
vt 18.97543 2
vt 17.43034 2
vt 18.97543 9.774525
vt 17.43034 9.774525
vt -18.94109 2
vt -20.4175 2
vt -18.94109 9.774525
vt -20.4175 9.774525
vt 20.52051 2
vt 18.97543 2
vt 20.52051 9.774525
vt 18.97543 9.774525
vt -20.4175 2
vt -21.89392 2
vt -20.4175 9.774525
vt -21.89392 9.774525
vt 22.06559 2
vt 20.52051 2
vt 22.06559 9.774525
vt 20.52051 9.774525
vt -20.4175 7.222548
vt -18.94109 7.222548
vt -20.52051 8.173603
vt -18.97543 8.173603
vt -21.89392 7.222548
vt -20.4175 7.222548
vt -22.06559 8.173603
vt -20.52051 8.173603
vt -18.94109 7.222548
vt -17.46468 7.222548
vt -18.97543 8.173603
vt -17.43034 8.173603
vt -17.46468 7.222548
vt -15.98826 7.222548
vt -17.43034 8.173603
vt -15.88525 8.173603
vt -15.98826 7.222548
vt -14.51185 7.222548
vt -15.88525 8.173603
vt -14.34017 8.173603

g Pipe-detach
usemtl Wall_Texture
f 3/3/3 4/4/4 2/2/2 1/1/1
f 7/7/7 8/8/8 6/6/6 5/5/5
f 11/11/11 12/12/12 10/10/10 9/9/9
f 15/15/15 16/16/16 14/14/14 13/13/13
f 19/19/19 20/20/20 18/18/18 17/17/17
f 23/23/23 24/24/24 22/22/22 21/21/21
f 27/27/27 28/28/28 26/26/26 25/25/25
f 31/31/31 32/32/32 30/30/30 29/29/29
f 35/35/35 36/36/36 34/34/34 33/33/33
f 39/39/39 40/40/40 38/38/38 37/37/37
f 44/44/44 43/43/43 41/41/41 42/42/42
f 48/48/48 47/47/47 45/45/45 46/46/46
f 52/52/52 51/51/51 49/49/49 50/50/50
f 56/56/56 55/55/55 53/53/53 54/54/54
f 60/60/60 59/59/59 57/57/57 58/58/58

