# Exported from ProBuilder
# http://www.procore3d.com/probuilder
# 3/18/2018 10:07:13 PM

mtllib ./Roof_Destruct_VeaRoom.mtl
o Roof_Destruct_VeaRoom

g Cube (20)
v -3 13.5 16
v -7.5 13.5 16
v -3 14 16
v -7.5 14 16
v -7.5 13.5 16
v -7.5 13.5 0
v -7.5 14 16
v -7.5 14 0
v -7.5 13.5 0
v -3 13.5 0
v -7.5 14 0
v -3 14 0
v -3 13.5 0
v -3 13.5 16
v -3 14 0
v -3 14 16
v -3 14 16
v -7.5 14 16
v -3 14 0
v -7.5 14 0
v -3 13.5 0
v -7.5 13.5 0
v -3 13.5 16
v -7.5 13.5 16

vn 0 0 1
vn 0 0 1
vn 0 0 1
vn 0 0 1
vn -1 0 0
vn -1 0 0
vn -1 0 0
vn -1 0 0
vn 0 0 -1
vn 0 0 -1
vn 0 0 -1
vn 0 0 -1
vn 1 0 0
vn 1 0 0
vn 1 0 0
vn 1 0 0
vn 0 1 0
vn 0 1 0
vn 0 1 0
vn 0 1 0
vn 0 -1 0
vn 0 -1 0
vn 0 -1 0
vn 0 -1 0

vt -4 0.5
vt -8.5 0.5
vt -4 1
vt -8.5 1
vt 0 0.5
vt -16 0.5
vt 0 1
vt -16 1
vt 8.5 0.5
vt 4 0.5
vt 8.5 1
vt 4 1
vt 16 0.5
vt 0 0.5
vt 16 1
vt 0 1
vt 4 0
vt 8.5 0
vt 4 -16
vt 8.5 -16
vt -4 -16
vt -8.5 -16
vt -4 0
vt -8.5 0

g Cube (20)
usemtl Default_Prototype
f 3/3/3 4/4/4 2/2/2 1/1/1
f 7/7/7 8/8/8 6/6/6 5/5/5
f 11/11/11 12/12/12 10/10/10 9/9/9
f 15/15/15 16/16/16 14/14/14 13/13/13
f 19/19/19 20/20/20 18/18/18 17/17/17
f 23/23/23 24/24/24 22/22/22 21/21/21

