# Exported from ProBuilder
# http://www.procore3d.com/probuilder
# 3/20/2018 5:57:59 PM

mtllib ./Gate_Door.mtl
o Gate_Door

g Gate
v 9.657883 8 52.31577
v 9.842117 8 52.31577
v 9.842117 8 52.49363
v 9.657883 8 52.49363
v 9.842117 8 52.49363
v 9.842117 8 53
v 9.657883 8 53
v 9.657883 8 52.49363
v 9.5 5 52
v 9.5 5 52.33575
v 10 5 52.33575
v 10 5 52
v 9.5 5 52.33575
v 9.5 5 53
v 10 5 53
v 10 5 52.33575
v 9.657883 8 53
v 9.842117 8 53
v 9.842117 8 53.50689
v 9.657883 8 53.50689
v 9.842117 8 53.50689
v 9.842117 8 53.68423
v 9.657883 8 53.68423
v 9.657883 8 53.50689
v 9.5 5 53
v 9.5 5 53.66477
v 10 5 53.66477
v 10 5 53
v 9.5 5 53.66477
v 9.5 5 54
v 10 5 54
v 10 5 53.66477
v 9.578941 6.5 53.84212
v 9.921059 6.5 53.84212
v 9.960529 5.75 53.92106
v 9.539471 5.75 53.92106
v 9.578941 6.5 52.15788
v 9.539471 5.75 52.07894
v 9.960529 5.75 52.07894
v 9.921059 6.5 52.15788
v 9.578941 6.5 53
v 9.539471 5.75 53
v 9.539471 5.753098 52.33646
v 9.578941 6.499983 52.41534
v 9.578941 6.499983 52.41534
v 9.539471 5.753098 52.33646
v 9.539471 5.75 52.07894
v 9.578941 6.5 52.15788
v 9.921059 6.5 52.15788
v 9.960529 5.75 52.07894
v 9.960529 5.75 52.37522
v 9.921059 6.5 52.41469
v 9.921059 6.5 52.41469
v 9.960529 5.75 52.37522
v 9.960529 5.75 53
v 9.921059 6.5 53
v 9.539471 5.75237 53.65689
v 9.578941 6.499989 53.5853
v 9.578941 6.5 53.84212
v 9.539471 5.75 53.92106
v 9.578941 6.499989 53.5853
v 9.539471 5.75237 53.65689
v 9.539471 5.75 53
v 9.578941 6.5 53
v 9.921059 6.5 53.58583
v 9.960529 5.75 53.6253
v 9.960529 5.75 53.92106
v 9.921059 6.5 53.84212
v 9.921059 6.5 53.58583
v 9.921059 6.5 53
v 9.960529 5.75 53
v 9.960529 5.75 53.6253
v 9.881588 7.25 53.76318
v 9.921059 6.5 53.84212
v 9.578941 6.5 53.84212
v 9.618412 7.25 53.76318
v 9.618412 7.25 52.23682
v 9.578941 6.5 52.15788
v 9.921059 6.5 52.15788
v 9.881588 7.25 52.23682
v 9.618412 7.25 53
v 9.578941 6.5 53
v 9.578941 6.499983 52.41534
v 9.618412 7.246867 52.49422
v 9.618412 7.246867 52.49422
v 9.578941 6.499983 52.41534
v 9.578941 6.5 52.15788
v 9.618412 7.25 52.23682
v 9.881588 7.25 52.23682
v 9.921059 6.5 52.15788
v 9.921059 6.5 52.41469
v 9.881588 7.25 52.45416
v 9.881588 7.25 52.45416
v 9.921059 6.5 52.41469
v 9.921059 6.5 53
v 9.881588 7.25 53
v 9.578941 6.5 53.84212
v 9.578941 6.499989 53.5853
v 9.618412 7.247607 53.51371
v 9.618412 7.25 53.76318
v 9.618412 7.247607 53.51371
v 9.578941 6.499989 53.5853
v 9.578941 6.5 53
v 9.618412 7.25 53
v 9.881588 7.25 53.54636
v 9.921059 6.5 53.58583
v 9.921059 6.5 53.84212
v 9.881588 7.25 53.76318
v 9.881588 7.25 53
v 9.921059 6.5 53
v 9.921059 6.5 53.58583
v 9.881588 7.25 53.54636
v 9.657883 8 53.68423
v 9.842117 8 53.68423
v 9.861853 7.625 53.72371
v 9.638147 7.625 53.72371
v 9.861853 7.625 53.72371
v 9.881588 7.25 53.76318
v 9.618412 7.25 53.76318
v 9.638147 7.625 53.72371
v 9.657883 8 52.31577
v 9.638147 7.625 52.27629
v 9.861853 7.625 52.27629
v 9.842117 8 52.31577
v 9.638147 7.625 52.27629
v 9.618412 7.25 52.23682
v 9.881588 7.25 52.23682
v 9.861853 7.625 52.27629
v 9.657883 8 53
v 9.638147 7.796969 53
v 9.638147 7.79204 52.54271
v 9.657883 8 52.49363
v 9.638147 7.796969 53
v 9.618412 7.25 53
v 9.618412 7.246867 52.49422
v 9.638147 7.79204 52.54271
v 9.657883 8 52.49363
v 9.638147 7.79204 52.54271
v 9.638147 7.625 52.27629
v 9.657883 8 52.31577
v 9.638147 7.79204 52.54271
v 9.618412 7.246867 52.49422
v 9.618412 7.25 52.23682
v 9.638147 7.625 52.27629
v 9.842117 8 52.31577
v 9.861853 7.625 52.27629
v 9.861853 7.625 52.4739
v 9.842117 8 52.49363
v 9.861853 7.625 52.27629
v 9.881588 7.25 52.23682
v 9.881588 7.25 52.45416
v 9.861853 7.625 52.4739
v 9.842117 8 52.49363
v 9.861853 7.625 52.4739
v 9.861853 7.625 53
v 9.842117 8 53
v 9.861853 7.625 52.4739
v 9.881588 7.25 52.45416
v 9.881588 7.25 53
v 9.861853 7.625 53
v 9.618412 7.25 53.76318
v 9.618412 7.247607 53.51371
v 9.638147 7.793228 53.47055
v 9.638147 7.625 53.72371
v 9.638147 7.793228 53.47055
v 9.657883 8 53.50689
v 9.657883 8 53.68423
v 9.638147 7.625 53.72371
v 9.657883 8 53.50689
v 9.638147 7.793228 53.47055
v 9.638147 7.796969 53
v 9.657883 8 53
v 9.638147 7.793228 53.47055
v 9.618412 7.247607 53.51371
v 9.618412 7.25 53
v 9.638147 7.796969 53
v 9.842117 8 53.50689
v 9.861853 7.625 53.52663
v 9.861853 7.625 53.72371
v 9.842117 8 53.68423
v 9.861853 7.625 53.52663
v 9.881588 7.25 53.54636
v 9.881588 7.25 53.76318
v 9.861853 7.625 53.72371
v 9.842117 8 53.50689
v 9.842117 8 53
v 9.861853 7.625 53
v 9.861853 7.625 53.52663
v 9.861853 7.625 53
v 9.881588 7.25 53
v 9.881588 7.25 53.54636
v 9.861853 7.625 53.52663
v 9.539471 5.75 53.92106
v 9.960529 5.75 53.92106
v 9.980265 5.375 53.96053
v 9.519735 5.375 53.96053
v 9.980265 5.375 53.96053
v 10 5 54
v 9.5 5 54
v 9.519735 5.375 53.96053
v 9.960529 5.75 52.07894
v 9.539471 5.75 52.07894
v 9.519735 5.375 52.03947
v 9.980265 5.375 52.03947
v 9.519735 5.375 52.03947
v 9.5 5 52
v 10 5 52
v 9.980265 5.375 52.03947
v 9.539471 5.75 53
v 9.519735 5.17829 53
v 9.519735 5.183218 52.28667
v 9.539471 5.753098 52.33646
v 9.519735 5.17829 53
v 9.5 5 53
v 9.5 5 52.33575
v 9.519735 5.183218 52.28667
v 9.539471 5.753098 52.33646
v 9.519735 5.183218 52.28667
v 9.519735 5.375 52.03947
v 9.539471 5.75 52.07894
v 9.519735 5.183218 52.28667
v 9.5 5 52.33575
v 9.5 5 52
v 9.519735 5.375 52.03947
v 9.960529 5.75 52.07894
v 9.980265 5.375 52.03947
v 9.980265 5.375 52.35548
v 9.960529 5.75 52.37522
v 9.980265 5.375 52.03947
v 10 5 52
v 10 5 52.33575
v 9.980265 5.375 52.35548
v 9.960529 5.75 52.37522
v 9.980265 5.375 52.35548
v 9.980265 5.375 53
v 9.960529 5.75 53
v 9.980265 5.375 52.35548
v 10 5 52.33575
v 10 5 53
v 9.980265 5.375 53
v 9.5 5 54
v 9.5 5 53.66477
v 9.519735 5.182032 53.70111
v 9.519735 5.375 53.96053
v 9.519735 5.182032 53.70111
v 9.539471 5.75237 53.65689
v 9.539471 5.75 53.92106
v 9.519735 5.375 53.96053
v 9.539471 5.75237 53.65689
v 9.519735 5.182032 53.70111
v 9.519735 5.17829 53
v 9.539471 5.75 53
v 9.519735 5.182032 53.70111
v 9.5 5 53.66477
v 9.5 5 53
v 9.519735 5.17829 53
v 9.960529 5.75 53.6253
v 9.980265 5.375 53.64504
v 9.980265 5.375 53.96053
v 9.960529 5.75 53.92106
v 9.980265 5.375 53.64504
v 10 5 53.66477
v 10 5 54
v 9.980265 5.375 53.96053
v 9.960529 5.75 53.6253
v 9.960529 5.75 53
v 9.980265 5.375 53
v 9.980265 5.375 53.64504
v 9.980265 5.375 53
v 10 5 53
v 10 5 53.66477
v 9.980265 5.375 53.64504

vn 0 1 0
vn 0 1 0
vn 0 1 0
vn 0 1 0
vn 0 1 0
vn 0 1 0
vn 0 1 0
vn 0 1 0
vn 0 -1 0
vn 0 -1 0
vn 0 -1 0
vn 0 -1 0
vn 0 -1 0
vn 0 -1 0
vn 0 -1 0
vn 0 -1 0
vn 0 1 0
vn 0 1 0
vn 0 1 0
vn 0 1 0
vn 0 1 0
vn 0 1 0
vn 0 1 0
vn 0 1 0
vn 0 -1 0
vn 0 -1 0
vn 0 -1 0
vn 0 -1 0
vn 0 -1 0
vn 0 -1 0
vn 0 -1 0
vn 0 -1 0
vn 0 0.1046767 0.9945062
vn 0 0.1046767 0.9945064
vn 0 0.1046767 0.9945064
vn 0 0.1046767 0.9945064
vn 0 0.1046767 -0.9945064
vn 0 0.1046767 -0.9945064
vn 0 0.1046767 -0.9945064
vn 0 0.1046767 -0.9945062
vn -0.9986126 0.05265706 0.0001298479
vn -0.998618 0.05255475 0.0002453235
vn -0.9986126 0.05265706 0.0001298479
vn -0.9986064 0.05277364 -1.753105E-06
vn -0.9986106 0.052697 -0.0003149563
vn -0.9986027 0.05284038 -0.0006355383
vn -0.9986106 0.052697 -0.0003149563
vn -0.998618 0.05255434 3.966412E-06
vn 0.998618 0.05255476 0
vn 0.9986179 0.05255475 0
vn 0.998618 0.05255476 0
vn 0.9986181 0.05255476 0
vn 0.998618 0.05255475 0
vn 0.998618 0.05255476 0
vn 0.998618 0.05255475 0
vn 0.9986181 0.05255476 0
vn -0.9986067 0.05276694 0.0004731461
vn -0.9986123 0.05266199 0.0002380476
vn -0.998618 0.05255446 -2.810187E-06
vn -0.9986123 0.05266199 0.0002380476
vn -0.9986139 0.05263337 -9.978599E-05
vn -0.9986103 0.05270363 -0.0001900491
vn -0.9986139 0.05263337 -9.978599E-05
vn -0.9986181 0.05255476 1.230968E-06
vn 0.9986181 0.05255476 0
vn 0.9986181 0.05255476 0
vn 0.9986181 0.05255476 0
vn 0.9986181 0.05255475 0
vn 0.998618 0.05255475 0
vn 0.9986179 0.05255475 0
vn 0.998618 0.05255475 0
vn 0.9986181 0.05255476 0
vn 0 0.1046767 0.9945063
vn 0 0.1046767 0.9945062
vn 0 0.1046767 0.9945063
vn 0 0.1046767 0.9945064
vn 0 0.1046766 -0.9945064
vn 0 0.1046766 -0.9945063
vn 0 0.1046766 -0.9945063
vn 0 0.1046766 -0.9945063
vn -0.9986119 0.05267191 -0.0001524521
vn -0.9986181 0.05255475 -1.747693E-06
vn -0.9986119 0.05267191 -0.0001524521
vn -0.9986046 0.05280798 -0.0003274979
vn -0.998614 0.05262997 0.0003226271
vn -0.9986066 0.05277308 3.985225E-06
vn -0.998614 0.05262997 0.0003226271
vn -0.9986213 0.0524876 0.0006396255
vn 0.998618 0.05255476 0
vn 0.9986181 0.05255476 0
vn 0.998618 0.05255476 0
vn 0.9986181 0.05255476 0
vn 0.998618 0.05255475 0
vn 0.9986181 0.05255476 0
vn 0.998618 0.05255475 0
vn 0.9986181 0.05255476 0
vn -0.9986149 0.05261303 -0.0002504344
vn -0.9986093 0.0527215 -2.81287E-06
vn -0.9986149 0.05261303 -0.0002504344
vn -0.9986207 0.05250182 -0.0005042946
vn -0.9986134 0.05264363 0.0001154336
vn -0.9986092 0.05272188 1.232723E-06
vn -0.9986134 0.05264363 0.0001154336
vn -0.998618 0.05255475 0.0002451364
vn 0.9986181 0.05255476 0
vn 0.998618 0.05255475 0
vn 0.9986181 0.05255476 0
vn 0.998618 0.05255476 0
vn 0.9986181 0.05255476 0
vn 0.9986181 0.05255476 0
vn 0.9986181 0.05255476 0
vn 0.9986181 0.05255476 0
vn 0 0.1046767 0.9945062
vn 0 0.1046767 0.9945063
vn 0 0.1046767 0.9945063
vn 0 0.1046767 0.9945063
vn 0 0.1046767 0.9945063
vn 0 0.1046767 0.9945064
vn 0 0.1046767 0.9945063
vn 0 0.1046767 0.9945063
vn 0 0.1046766 -0.9945062
vn 0 0.1046766 -0.9945063
vn 0 0.1046766 -0.9945063
vn 0 0.1046766 -0.9945063
vn 0 0.1046769 -0.9945063
vn 0 0.1046769 -0.9945064
vn 0 0.1046769 -0.9945063
vn 0 0.1046769 -0.9945063
vn -0.9954254 0.09553969 -0.0004889251
vn -0.9953085 0.09674773 -0.001043338
vn -0.9954254 0.09553969 -0.0004889251
vn -0.9955273 0.09447423 0
vn -0.999347 0.03613036 -0.0003028972
vn -0.9993496 0.03605767 -0.0002237287
vn -0.999347 0.03613036 -0.0003028972
vn -0.999344 0.0362111 -0.0003908317
vn -0.997426 0.06711706 -0.02523416
vn -0.9952734 0.08227709 -0.05158699
vn -0.997426 0.06711706 -0.02523416
vn -0.9986181 0.05255483 0
vn -0.9989284 0.04416983 -0.01382057
vn -0.9993467 0.03613726 0.0004405913
vn -0.9989284 0.04416983 -0.01382057
vn -0.9977959 0.05622167 -0.03525019
vn 0.9986181 0.05255483 0
vn 0.9986181 0.05255483 0
vn 0.9986181 0.05255483 0
vn 0.9986181 0.05255483 0
vn 0.9986181 0.05255468 0
vn 0.9986181 0.05255468 0
vn 0.9986181 0.05255468 0
vn 0.9986181 0.05255468 0
vn 0.9986181 0.05255483 0
vn 0.9986181 0.05255483 0
vn 0.9986181 0.05255483 0
vn 0.998618 0.05255483 0
vn 0.9986181 0.05255467 0
vn 0.9986181 0.05255467 0
vn 0.9986181 0.05255467 0
vn 0.9986181 0.05255467 0
vn -0.9989195 0.04413451 0.01456117
vn -0.9993474 0.03611935 -0.0003471621
vn -0.9989195 0.04413451 0.01456117
vn -0.9977001 0.05645505 0.03751545
vn -0.9947765 0.08501741 0.05649615
vn -0.9973465 0.06780799 0.02649722
vn -0.998618 0.05255483 0
vn -0.9973465 0.06780799 0.02649722
vn -0.9953967 0.09583984 0.0003670779
vn -0.9954884 0.09488057 0.000754874
vn -0.9953967 0.09583984 0.0003670779
vn -0.9953089 0.09674777 0
vn -0.9993477 0.03611107 0.0002254703
vn -0.999346 0.03616011 0.0001687735
vn -0.9993477 0.03611107 0.0002254703
vn -0.9993497 0.03605767 0.0002871922
vn 0.998618 0.05255483 0
vn 0.9986181 0.05255484 0
vn 0.998618 0.05255483 0
vn 0.998618 0.05255483 0
vn 0.9986181 0.05255468 0
vn 0.998618 0.05255467 0
vn 0.9986181 0.05255468 0
vn 0.9986181 0.05255468 0
vn 0.998618 0.05255483 0
vn 0.9986181 0.05255483 0
vn 0.998618 0.05255483 0
vn 0.998618 0.05255483 0
vn 0.9986181 0.05255468 0
vn 0.9986181 0.05255467 0
vn 0.998618 0.05255467 0
vn 0.9986181 0.05255467 0
vn 0 0.1046766 0.9945062
vn 0 0.1046766 0.9945063
vn 0 0.1046766 0.9945062
vn 0 0.1046766 0.9945063
vn 0 0.1046767 0.9945063
vn 0 0.1046767 0.9945063
vn 0 0.1046767 0.9945062
vn 0 0.1046767 0.9945063
vn 0 0.1046766 -0.9945063
vn 0 0.1046766 -0.9945062
vn 0 0.1046766 -0.9945063
vn 0 0.1046766 -0.9945062
vn 0 0.1046769 -0.9945062
vn 0 0.1046769 -0.9945062
vn 0 0.1046769 -0.9945062
vn 0 0.1046769 -0.9945062
vn -0.9994031 0.0345457 0.0002013573
vn -0.9994047 0.03449918 0.000238365
vn -0.9994031 0.0345457 0.0002013573
vn -0.9994014 0.03459585 0.0001614611
vn -0.9940865 0.1085904 0.0003885058
vn -0.9939293 0.1100204 0
vn -0.9940865 0.1085904 0.0003885058
vn -0.9942274 0.1072916 0.0007413069
vn -0.9990735 0.04031079 0.0150697
vn -0.9991586 0.03240492 0.02514023
vn -0.9990735 0.04031079 0.0150697
vn -0.9986143 0.0526211 -0.0006329008
vn -0.9972097 0.07091258 0.02332912
vn -0.9942487 0.1070953 0
vn -0.9972097 0.07091258 0.02332912
vn -0.9981093 0.04856252 0.03767554
vn 0.998618 0.05255467 0
vn 0.9986181 0.05255467 0
vn 0.998618 0.05255467 0
vn 0.9986179 0.05255467 0
vn 0.9986181 0.05255484 0
vn 0.998618 0.05255483 0
vn 0.9986181 0.05255484 0
vn 0.9986181 0.05255484 0
vn 0.9986181 0.05255468 0
vn 0.9986181 0.05255468 0
vn 0.9986181 0.05255468 0
vn 0.998618 0.05255467 0
vn 0.9986181 0.05255483 0
vn 0.9986179 0.05255483 0
vn 0.9986181 0.05255483 0
vn 0.9986181 0.05255483 0
vn -0.9972466 0.07053515 -0.02288932
vn -0.9941742 0.1077854 0
vn -0.9972466 0.07053515 -0.02288932
vn -0.9981551 0.04871629 -0.03623759
vn -0.9991698 0.03268872 -0.02431549
vn -0.9990748 0.04041186 -0.01471093
vn -0.9986153 0.05260418 0.0004716843
vn -0.9990748 0.04041186 -0.01471093
vn -0.9994034 0.03453461 -0.000155378
vn -0.9994024 0.03456788 -0.0001844846
vn -0.9994034 0.03453461 -0.000155378
vn -0.9994048 0.03449918 -0.0001243736
vn -0.9940503 0.1089213 -0.0002983822
vn -0.9941741 0.1077855 0
vn -0.9940503 0.1089213 -0.0002983822
vn -0.9939291 0.1100204 -0.0005871652
vn 0.9986179 0.05255467 0
vn 0.9986181 0.05255468 0
vn 0.9986179 0.05255467 0
vn 0.998618 0.05255467 0
vn 0.9986181 0.05255483 0
vn 0.998618 0.05255483 0
vn 0.9986181 0.05255483 0
vn 0.9986181 0.05255483 0
vn 0.998618 0.05255467 0
vn 0.9986181 0.05255467 0
vn 0.998618 0.05255467 0
vn 0.9986181 0.05255468 0
vn 0.998618 0.05255483 0
vn 0.998618 0.05255483 0
vn 0.9986179 0.05255483 0
vn 0.998618 0.05255483 0

vt 3.086029 -1.184235
vt 2.901794 -1.184235
vt 2.901794 -1.006367
vt 3.086029 -1.006367
vt 2.901794 -1.006367
vt 2.901794 -0.4999999
vt 3.086029 -0.4999999
vt 3.086029 -1.006367
vt 0.9999998 -2.856783
vt 0.9999998 -2.521033
vt 0.4999998 -2.521033
vt 0.4999998 -2.856783
vt 0.9999998 -2.521033
vt 0.9999998 -1.856783
vt 0.4999998 -1.856783
vt 0.4999998 -2.521033
vt 3.086029 -0.4999999
vt 2.901794 -0.4999999
vt 2.901794 0.00688976
vt 3.086029 0.00688976
vt 2.901794 0.00688976
vt 2.901794 0.1842353
vt 3.086029 0.1842353
vt 3.086029 0.00688976
vt 0.9999998 -1.856783
vt 0.9999998 -1.192011
vt 0.4999998 -1.192011
vt 0.4999998 -1.856783
vt 0.9999998 -1.192011
vt 0.9999998 -0.8567834
vt 0.4999998 -0.8567834
vt 0.4999998 -1.192011
vt 2.041331 1.455948
vt 2.383449 1.455948
vt 2.422919 0.7018047
vt 2.00186 0.7018047
vt -3.243246 1.351271
vt -3.282717 0.5971282
vt -2.861658 0.5971282
vt -2.901128 1.351271
vt 3.82634 2.346103
vt 3.82634 1.970584
vt 3.494572 1.972131
vt 3.534013 2.346094
vt -1.818697 -0.6093615
vt -1.858137 -0.9833236
vt -1.986898 -0.9848709
vt -1.947428 -0.6093531
vt -1.342117 4.711576
vt -1.421059 3.960538
vt -1.124779 3.960538
vt -1.085308 4.711576
vt -1.085308 4.711576
vt -1.124779 3.960538
vt -0.4999999 3.960538
vt -0.4999999 4.711576
vt -1.197925 -0.9836869
vt -1.233719 -0.6093583
vt -1.10531 -0.6093525
vt -1.065839 -0.9848703
vt 4.449272 2.345946
vt 4.485069 1.971617
vt 4.156625 1.97043
vt 4.156622 2.345949
vt 0.08583096 4.711576
vt 0.1253016 3.960538
vt 0.4210589 3.960538
vt 0.3421177 4.711576
vt 0.08583096 4.711576
vt -0.4999999 4.711576
vt -0.4999999 3.960538
vt 0.1253016 3.960538
vt 2.343978 2.210091
vt 2.383449 1.455948
vt 2.041331 1.455948
vt 2.080801 2.210091
vt -3.203775 2.105414
vt -3.243246 1.351271
vt -2.901128 1.351271
vt -2.940599 2.105414
vt 3.846353 3.097125
vt 3.846359 2.721606
vt 3.554032 2.721593
vt 3.593463 3.095556
vt -1.779259 -0.2353997
vt -1.818697 -0.6093615
vt -1.947428 -0.6093531
vt -1.907957 -0.2338351
vt -1.263176 5.462614
vt -1.342117 4.711576
vt -1.085308 4.711576
vt -1.045838 5.462614
vt -1.045838 5.462614
vt -1.085308 4.711576
vt -0.4999999 4.711576
vt -0.4999999 5.462614
vt -1.10531 -0.6093525
vt -1.233719 -0.6093583
vt -1.269512 -0.2350296
vt -1.144781 -0.2338346
vt 4.395404 3.095776
vt 4.431197 2.721446
vt 4.138547 2.721452
vt 4.138547 3.096971
vt 0.04636035 5.462614
vt 0.08583096 4.711576
vt 0.3421177 4.711576
vt 0.2631765 5.462614
vt -0.4999999 5.462614
vt -0.4999999 4.711576
vt 0.08583096 4.711576
vt 0.04636035 5.462614
vt 2.120272 2.964234
vt 2.304507 2.964234
vt 2.324243 2.587162
vt 2.100537 2.587162
vt 2.324243 2.587162
vt 2.343978 2.210091
vt 2.080801 2.210091
vt 2.100537 2.587162
vt -3.164305 2.859557
vt -3.18404 2.482486
vt -2.960334 2.482486
vt -2.98007 2.859557
vt -3.18404 2.482486
vt -3.203775 2.105414
vt -2.940599 2.105414
vt -2.960334 2.482486
vt -1.526369 0.1416829
vt -1.526369 0.03980041
vt -1.755016 0.03733897
vt -1.779553 0.1416829
vt 3.866117 3.710793
vt 3.866121 3.43713
vt 3.613232 3.435561
vt 3.63747 3.708327
vt -1.779553 0.1416829
vt -1.755016 0.03733897
vt -1.888222 -0.04607606
vt -1.868487 0.1416829
vt -1.755016 0.03733897
vt -1.779259 -0.2353997
vt -1.907957 -0.2338351
vt -1.888222 -0.04607606
vt -1.184235 6.213652
vt -1.223706 5.838133
vt -1.026102 5.838133
vt -1.006367 6.213652
vt -1.223706 5.838133
vt -1.263176 5.462614
vt -1.045838 5.462614
vt -1.026102 5.838133
vt -1.006367 6.213652
vt -1.026102 5.838133
vt -0.4999999 5.838133
vt -0.4999999 6.213652
vt -1.026102 5.838133
vt -1.045838 5.462614
vt -0.4999999 5.462614
vt -0.4999999 5.838133
vt -1.144781 -0.2338346
vt -1.269512 -0.2350296
vt -1.291092 0.03793263
vt -1.164516 -0.04607558
vt -1.291092 0.03793263
vt -1.272925 0.1416833
vt -1.184252 0.1416833
vt -1.164516 -0.04607558
vt -1.272925 0.1416833
vt -1.291092 0.03793263
vt -1.526369 0.03980041
vt -1.526369 0.1416829
vt 4.355781 3.709019
vt 4.377359 3.43603
vt 4.120502 3.437227
vt 4.120504 3.71089
vt 0.006889757 6.213652
vt 0.02662506 5.838133
vt 0.2237059 5.838133
vt 0.1842353 6.213652
vt 0.02662506 5.838133
vt 0.04636035 5.462614
vt 0.2631765 5.462614
vt 0.2237059 5.838133
vt 0.006889757 6.213652
vt -0.4999999 6.213652
vt -0.4999999 5.838133
vt 0.02662506 5.838133
vt -0.4999999 5.838133
vt -0.4999999 5.462614
vt 0.04636035 5.462614
vt 0.02662506 5.838133
vt 2.00186 0.7018047
vt 2.422919 0.7018047
vt 2.442654 0.3247332
vt 1.982125 0.3247332
vt 2.442654 0.3247332
vt 2.46239 -0.05233835
vt 1.96239 -0.05233835
vt 1.982125 0.3247332
vt -2.861658 0.5971282
vt -3.282717 0.5971282
vt -3.302452 0.2200566
vt -2.841923 0.2200566
vt -3.302452 0.2200566
vt -3.322187 -0.1570149
vt -2.822187 -0.1570149
vt -2.841923 0.2200566
vt 3.813735 1.658523
vt 3.813733 1.372497
vt 3.457069 1.374962
vt 3.481967 1.660073
vt -1.526368 -1.270861
vt -1.526368 -1.360389
vt -1.858493 -1.360389
vt -1.883033 -1.2684
vt -1.858137 -0.9833236
vt -1.883033 -1.2684
vt -2.006633 -1.17263
vt -1.986898 -0.9848709
vt -1.883033 -1.2684
vt -1.858493 -1.360389
vt -2.026368 -1.360389
vt -2.006633 -1.17263
vt -1.421059 3.960538
vt -1.460529 3.585019
vt -1.144514 3.585019
vt -1.124779 3.960538
vt -1.460529 3.585019
vt -1.5 3.2095
vt -1.164249 3.2095
vt -1.144514 3.585019
vt -1.124779 3.960538
vt -1.144514 3.585019
vt -0.4999999 3.585019
vt -0.4999999 3.960538
vt -1.144514 3.585019
vt -1.164249 3.2095
vt -0.4999999 3.2095
vt -0.4999999 3.585019
vt -1.026368 -1.360388
vt -1.193982 -1.360388
vt -1.175813 -1.268992
vt -1.046104 -1.172629
vt -1.175813 -1.268992
vt -1.197925 -0.9836869
vt -1.065839 -0.9848703
vt -1.046104 -1.172629
vt 4.496122 1.659453
vt 4.518236 1.374114
vt 4.167681 1.372242
vt 4.167679 1.658267
vt -1.175813 -1.268992
vt -1.193982 -1.360388
vt -1.526368 -1.360389
vt -1.526368 -1.270861
vt 0.1253016 3.960538
vt 0.1450368 3.585019
vt 0.4605295 3.585019
vt 0.4210589 3.960538
vt 0.1450368 3.585019
vt 0.1647722 3.2095
vt 0.5000001 3.2095
vt 0.4605295 3.585019
vt 0.1253016 3.960538
vt -0.4999999 3.960538
vt -0.4999999 3.585019
vt 0.1450368 3.585019
vt -0.4999999 3.585019
vt -0.4999999 3.2095
vt 0.1647722 3.2095
vt 0.1450368 3.585019

g Gate_0
usemtl Default_Prototype
f 4/4/4 3/3/3 2/2/2 1/1/1
f 7/7/7 6/6/6 5/5/5 8/8/8
f 12/12/12 11/11/11 10/10/10 9/9/9
f 16/16/16 15/15/15 14/14/14 13/13/13
f 20/20/20 19/19/19 18/18/18 17/17/17
f 23/23/23 22/22/22 21/21/21 24/24/24
f 28/28/28 27/27/27 26/26/26 25/25/25
f 32/32/32 31/31/31 30/30/30 29/29/29
f 33/33/33 36/36/36 35/35/35 34/34/34
f 40/40/40 39/39/39 38/38/38 37/37/37
f 52/52/52 51/51/51 50/50/50 49/49/49
f 56/56/56 55/55/55 54/54/54 53/53/53
f 68/68/68 67/67/67 66/66/66 65/65/65
f 72/72/72 71/71/71 70/70/70 69/69/69
f 76/76/76 75/75/75 74/74/74 73/73/73
f 79/79/79 78/78/78 77/77/77 80/80/80
f 92/92/92 91/91/91 90/90/90 89/89/89
f 96/96/96 95/95/95 94/94/94 93/93/93
f 108/108/108 107/107/107 106/106/106 105/105/105
f 111/111/111 110/110/110 109/109/109 112/112/112
f 113/113/113 116/116/116 115/115/115 114/114/114
f 120/120/120 119/119/119 118/118/118 117/117/117
f 123/123/123 122/122/122 121/121/121 124/124/124
f 128/128/128 127/127/127 126/126/126 125/125/125
f 148/148/148 147/147/147 146/146/146 145/145/145
f 152/152/152 151/151/151 150/150/150 149/149/149
f 156/156/156 155/155/155 154/154/154 153/153/153
f 160/160/160 159/159/159 158/158/158 157/157/157
f 180/180/180 179/179/179 178/178/178 177/177/177
f 184/184/184 183/183/183 182/182/182 181/181/181
f 188/188/188 187/187/187 186/186/186 185/185/185
f 191/191/191 190/190/190 189/189/189 192/192/192
f 196/196/196 195/195/195 194/194/194 193/193/193
f 199/199/199 198/198/198 197/197/197 200/200/200
f 201/201/201 204/204/204 203/203/203 202/202/202
f 208/208/208 207/207/207 206/206/206 205/205/205
f 228/228/228 227/227/227 226/226/226 225/225/225
f 232/232/232 231/231/231 230/230/230 229/229/229
f 236/236/236 235/235/235 234/234/234 233/233/233
f 240/240/240 239/239/239 238/238/238 237/237/237
f 260/260/260 259/259/259 258/258/258 257/257/257
f 264/264/264 263/263/263 262/262/262 261/261/261
f 268/268/268 267/267/267 266/266/266 265/265/265
f 271/271/271 270/270/270 269/269/269 272/272/272

g Gate_1
usemtl Mayan_Ornament_Mat
f 44/44/44 43/43/43 42/42/42 41/41/41
f 64/64/64 63/63/63 62/62/62 61/61/61
f 84/84/84 83/83/83 82/82/82 81/81/81
f 104/104/104 103/103/103 102/102/102 101/101/101
f 136/136/136 135/135/135 134/134/134 133/133/133
f 176/176/176 175/175/175 174/174/174 173/173/173
f 212/212/212 211/211/211 210/210/210 209/209/209
f 252/252/252 251/251/251 250/250/250 249/249/249

g Gate_2
usemtl Dalle_Tex
f 48/48/48 47/47/47 46/46/46 45/45/45
f 59/59/59 58/58/58 57/57/57 60/60/60
f 88/88/88 87/87/87 86/86/86 85/85/85
f 100/100/100 99/99/99 98/98/98 97/97/97
f 132/132/132 131/131/131 130/130/130 129/129/129
f 140/140/140 139/139/139 138/138/138 137/137/137
f 144/144/144 143/143/143 142/142/142 141/141/141
f 164/164/164 163/163/163 162/162/162 161/161/161
f 167/167/167 166/166/166 165/165/165 168/168/168
f 172/172/172 171/171/171 170/170/170 169/169/169
f 216/216/216 215/215/215 214/214/214 213/213/213
f 220/220/220 219/219/219 218/218/218 217/217/217
f 224/224/224 223/223/223 222/222/222 221/221/221
f 244/244/244 243/243/243 242/242/242 241/241/241
f 247/247/247 246/246/246 245/245/245 248/248/248
f 256/256/256 255/255/255 254/254/254 253/253/253

