# Exported from ProBuilder
# http://www.procore3d.com/probuilder
# 3/25/2018 11:22:25 PM

mtllib ./Timer_Roof_Puzzle2.mtl
o Timer_Roof_Puzzle2

g Cylinder
v 64 121.5 -72.06
v 64 121.75 -72.06
v 64.15372 121.5 -70.49928
v 64.15372 121.75 -70.49928
v 64.15372 121.5 -70.49928
v 64.15372 121.75 -70.49928
v 64.60896 121.5 -68.99853
v 64.60896 121.75 -68.99853
v 64.60896 121.5 -68.99853
v 64.60896 121.75 -68.99853
v 65.34824 121.5 -67.61543
v 65.34824 121.75 -67.61543
v 65.34824 121.5 -67.61543
v 65.34824 121.75 -67.61543
v 66.34315 121.5 -66.40314
v 66.34315 121.75 -66.40314
v 66.34315 121.5 -66.40314
v 66.34315 121.75 -66.40314
v 67.55544 121.5 -65.40824
v 67.55544 121.75 -65.40824
v 67.55544 121.5 -65.40824
v 67.55544 121.75 -65.40824
v 68.93853 121.5 -64.66896
v 68.93853 121.75 -64.66896
v 68.93853 121.5 -64.66896
v 68.93853 121.75 -64.66896
v 70.43928 121.5 -64.21371
v 70.43928 121.75 -64.21371
v 70.43928 121.5 -64.21371
v 70.43928 121.75 -64.21371
v 72 121.5 -64.06
v 72 121.75 -64.06
v 72 121.5 -64.06
v 72 121.75 -64.06
v 73.56072 121.5 -64.21371
v 73.56072 121.75 -64.21371
v 73.56072 121.5 -64.21371
v 73.56072 121.75 -64.21371
v 75.06147 121.5 -64.66896
v 75.06147 121.75 -64.66896
v 75.06147 121.5 -64.66896
v 75.06147 121.75 -64.66896
v 76.44456 121.5 -65.40824
v 76.44456 121.75 -65.40824
v 76.44456 121.5 -65.40824
v 76.44456 121.75 -65.40824
v 77.65685 121.5 -66.40314
v 77.65685 121.75 -66.40314
v 77.65685 121.5 -66.40314
v 77.65685 121.75 -66.40314
v 78.65176 121.5 -67.61543
v 78.65176 121.75 -67.61543
v 78.65176 121.5 -67.61543
v 78.65176 121.75 -67.61543
v 79.39104 121.5 -68.99853
v 79.39104 121.75 -68.99853
v 79.39104 121.5 -68.99853
v 79.39104 121.75 -68.99853
v 79.84628 121.5 -70.49928
v 79.84628 121.75 -70.49928
v 79.84628 121.5 -70.49928
v 79.84628 121.75 -70.49928
v 80 121.5 -72.06
v 80 121.75 -72.06
v 80 121.5 -72.06
v 80 121.75 -72.06
v 79.84628 121.5 -73.62072
v 79.84628 121.75 -73.62072
v 79.84628 121.5 -73.62072
v 79.84628 121.75 -73.62072
v 79.39104 121.5 -75.12147
v 79.39104 121.75 -75.12147
v 79.39104 121.5 -75.12147
v 79.39104 121.75 -75.12147
v 78.65176 121.5 -76.50456
v 78.65176 121.75 -76.50456
v 78.65176 121.5 -76.50456
v 78.65176 121.75 -76.50456
v 77.65685 121.5 -77.71685
v 77.65685 121.75 -77.71685
v 77.65685 121.5 -77.71685
v 77.65685 121.75 -77.71685
v 76.44456 121.5 -78.71175
v 76.44456 121.75 -78.71175
v 76.44456 121.5 -78.71175
v 76.44456 121.75 -78.71175
v 75.06147 121.5 -79.45103
v 75.06147 121.75 -79.45103
v 75.06147 121.5 -79.45103
v 75.06147 121.75 -79.45103
v 73.56072 121.5 -79.90628
v 73.56072 121.75 -79.90628
v 73.56072 121.5 -79.90628
v 73.56072 121.75 -79.90628
v 72 121.5 -80.06
v 72 121.75 -80.06
v 72 121.5 -80.06
v 72 121.75 -80.06
v 70.43928 121.5 -79.90628
v 70.43928 121.75 -79.90628
v 70.43928 121.5 -79.90628
v 70.43928 121.75 -79.90628
v 68.93853 121.5 -79.45103
v 68.93853 121.75 -79.45103
v 68.93853 121.5 -79.45103
v 68.93853 121.75 -79.45103
v 67.55544 121.5 -78.71175
v 67.55544 121.75 -78.71175
v 67.55544 121.5 -78.71175
v 67.55544 121.75 -78.71175
v 66.34315 121.5 -77.71685
v 66.34315 121.75 -77.71685
v 66.34315 121.5 -77.71685
v 66.34315 121.75 -77.71685
v 65.34824 121.5 -76.50456
v 65.34824 121.75 -76.50456
v 65.34824 121.5 -76.50456
v 65.34824 121.75 -76.50456
v 64.60896 121.5 -75.12147
v 64.60896 121.75 -75.12147
v 64.60896 121.5 -75.12147
v 64.60896 121.75 -75.12147
v 64.15372 121.5 -73.62072
v 64.15372 121.75 -73.62072
v 64.15372 121.5 -73.62072
v 64.15372 121.75 -73.62072
v 64 121.5 -72.06
v 64 121.75 -72.06
v 64 121.5 -72.06
v 72 121.5 -72.06
v 64.15372 121.5 -70.49928
v 64 121.75 -72.06
v 72 121.75 -72.06
v 64.15372 121.75 -70.49928
v 64.15372 121.5 -70.49928
v 72 121.5 -72.06
v 64.60896 121.5 -68.99853
v 64.15372 121.75 -70.49928
v 72 121.75 -72.06
v 64.60896 121.75 -68.99853
v 64.60896 121.5 -68.99853
v 72 121.5 -72.06
v 65.34824 121.5 -67.61543
v 64.60896 121.75 -68.99853
v 72 121.75 -72.06
v 65.34824 121.75 -67.61543
v 65.34824 121.5 -67.61543
v 72 121.5 -72.06
v 66.34315 121.5 -66.40314
v 65.34824 121.75 -67.61543
v 72 121.75 -72.06
v 66.34315 121.75 -66.40314
v 66.34315 121.5 -66.40314
v 72 121.5 -72.06
v 67.55544 121.5 -65.40824
v 66.34315 121.75 -66.40314
v 72 121.75 -72.06
v 67.55544 121.75 -65.40824
v 67.55544 121.5 -65.40824
v 72 121.5 -72.06
v 68.93853 121.5 -64.66896
v 67.55544 121.75 -65.40824
v 72 121.75 -72.06
v 68.93853 121.75 -64.66896
v 68.93853 121.5 -64.66896
v 72 121.5 -72.06
v 70.43928 121.5 -64.21371
v 68.93853 121.75 -64.66896
v 72 121.75 -72.06
v 70.43928 121.75 -64.21371
v 70.43928 121.5 -64.21371
v 72 121.5 -72.06
v 72 121.5 -64.06
v 70.43928 121.75 -64.21371
v 72 121.75 -72.06
v 72 121.75 -64.06
v 72 121.5 -64.06
v 72 121.5 -72.06
v 73.56072 121.5 -64.21371
v 72 121.75 -64.06
v 72 121.75 -72.06
v 73.56072 121.75 -64.21371
v 73.56072 121.5 -64.21371
v 72 121.5 -72.06
v 75.06147 121.5 -64.66896
v 73.56072 121.75 -64.21371
v 72 121.75 -72.06
v 75.06147 121.75 -64.66896
v 75.06147 121.5 -64.66896
v 72 121.5 -72.06
v 76.44456 121.5 -65.40824
v 75.06147 121.75 -64.66896
v 72 121.75 -72.06
v 76.44456 121.75 -65.40824
v 76.44456 121.5 -65.40824
v 72 121.5 -72.06
v 77.65685 121.5 -66.40314
v 76.44456 121.75 -65.40824
v 72 121.75 -72.06
v 77.65685 121.75 -66.40314
v 77.65685 121.5 -66.40314
v 72 121.5 -72.06
v 78.65176 121.5 -67.61543
v 77.65685 121.75 -66.40314
v 72 121.75 -72.06
v 78.65176 121.75 -67.61543
v 78.65176 121.5 -67.61543
v 72 121.5 -72.06
v 79.39104 121.5 -68.99853
v 78.65176 121.75 -67.61543
v 72 121.75 -72.06
v 79.39104 121.75 -68.99853
v 79.39104 121.5 -68.99853
v 72 121.5 -72.06
v 79.84628 121.5 -70.49928
v 79.39104 121.75 -68.99853
v 72 121.75 -72.06
v 79.84628 121.75 -70.49928
v 79.84628 121.5 -70.49928
v 72 121.5 -72.06
v 80 121.5 -72.06
v 79.84628 121.75 -70.49928
v 72 121.75 -72.06
v 80 121.75 -72.06
v 80 121.5 -72.06
v 72 121.5 -72.06
v 79.84628 121.5 -73.62072
v 80 121.75 -72.06
v 72 121.75 -72.06
v 79.84628 121.75 -73.62072
v 79.84628 121.5 -73.62072
v 72 121.5 -72.06
v 79.39104 121.5 -75.12147
v 79.84628 121.75 -73.62072
v 72 121.75 -72.06
v 79.39104 121.75 -75.12147
v 79.39104 121.5 -75.12147
v 72 121.5 -72.06
v 78.65176 121.5 -76.50456
v 79.39104 121.75 -75.12147
v 72 121.75 -72.06
v 78.65176 121.75 -76.50456
v 78.65176 121.5 -76.50456
v 72 121.5 -72.06
v 77.65685 121.5 -77.71685
v 78.65176 121.75 -76.50456
v 72 121.75 -72.06
v 77.65685 121.75 -77.71685
v 77.65685 121.5 -77.71685
v 72 121.5 -72.06
v 76.44456 121.5 -78.71175
v 77.65685 121.75 -77.71685
v 72 121.75 -72.06
v 76.44456 121.75 -78.71175
v 76.44456 121.5 -78.71175
v 72 121.5 -72.06
v 75.06147 121.5 -79.45103
v 76.44456 121.75 -78.71175
v 72 121.75 -72.06
v 75.06147 121.75 -79.45103
v 75.06147 121.5 -79.45103
v 72 121.5 -72.06
v 73.56072 121.5 -79.90628
v 75.06147 121.75 -79.45103
v 72 121.75 -72.06
v 73.56072 121.75 -79.90628
v 73.56072 121.5 -79.90628
v 72 121.5 -72.06
v 72 121.5 -80.06
v 73.56072 121.75 -79.90628
v 72 121.75 -72.06
v 72 121.75 -80.06
v 72 121.5 -80.06
v 72 121.5 -72.06
v 70.43928 121.5 -79.90628
v 72 121.75 -80.06
v 72 121.75 -72.06
v 70.43928 121.75 -79.90628
v 70.43928 121.5 -79.90628
v 72 121.5 -72.06
v 68.93853 121.5 -79.45103
v 70.43928 121.75 -79.90628
v 72 121.75 -72.06
v 68.93853 121.75 -79.45103
v 68.93853 121.5 -79.45103
v 72 121.5 -72.06
v 67.55544 121.5 -78.71175
v 68.93853 121.75 -79.45103
v 72 121.75 -72.06
v 67.55544 121.75 -78.71175
v 67.55544 121.5 -78.71175
v 72 121.5 -72.06
v 66.34315 121.5 -77.71685
v 67.55544 121.75 -78.71175
v 72 121.75 -72.06
v 66.34315 121.75 -77.71685
v 66.34315 121.5 -77.71685
v 72 121.5 -72.06
v 65.34824 121.5 -76.50456
v 66.34315 121.75 -77.71685
v 72 121.75 -72.06
v 65.34824 121.75 -76.50456
v 65.34824 121.5 -76.50456
v 72 121.5 -72.06
v 64.60896 121.5 -75.12147
v 65.34824 121.75 -76.50456
v 72 121.75 -72.06
v 64.60896 121.75 -75.12147
v 64.60896 121.5 -75.12147
v 72 121.5 -72.06
v 64.15372 121.5 -73.62072
v 64.60896 121.75 -75.12147
v 72 121.75 -72.06
v 64.15372 121.75 -73.62072
v 64.15372 121.5 -73.62072
v 72 121.5 -72.06
v 64 121.5 -72.06
v 64.15372 121.75 -73.62072
v 72 121.75 -72.06
v 64 121.75 -72.06

vn -0.9951847 0 1.266599E-07
vn -0.9951847 0 1.266599E-07
vn -0.9760625 0 0.194151
vn -0.9760625 0 0.194151
vn -0.9760625 0 0.194151
vn -0.9760625 0 0.194151
vn -0.9194309 0 0.3808407
vn -0.9194309 0 0.3808407
vn -0.9194309 0 0.3808407
vn -0.9194309 0 0.3808407
vn -0.8274658 0 0.552895
vn -0.8274658 0 0.552895
vn -0.8274658 0 0.552895
vn -0.8274658 0 0.552895
vn -0.7037019 0 0.7037019
vn -0.7037019 0 0.7037019
vn -0.7037019 0 0.7037019
vn -0.7037019 0 0.7037019
vn -0.552895 0 0.8274659
vn -0.552895 0 0.8274659
vn -0.552895 0 0.8274659
vn -0.552895 0 0.8274659
vn -0.3808407 0 0.9194309
vn -0.3808407 0 0.9194309
vn -0.3808407 0 0.9194309
vn -0.3808407 0 0.9194309
vn -0.194151 0 0.9760625
vn -0.194151 0 0.9760625
vn -0.194151 0 0.9760625
vn -0.194151 0 0.9760625
vn 2.980232E-08 0 0.9951847
vn 2.980232E-08 0 0.9951847
vn 2.980232E-08 0 0.9951847
vn 2.980232E-08 0 0.9951847
vn 0.1941509 0 0.9760625
vn 0.1941509 0 0.9760625
vn 0.1941509 0 0.9760625
vn 0.1941509 0 0.9760625
vn 0.3808406 0 0.9194309
vn 0.3808406 0 0.9194309
vn 0.3808406 0 0.9194309
vn 0.3808406 0 0.9194309
vn 0.5528951 0 0.8274659
vn 0.5528951 0 0.8274659
vn 0.5528951 0 0.8274659
vn 0.5528951 0 0.8274659
vn 0.7037019 0 0.7037019
vn 0.7037019 0 0.7037019
vn 0.7037019 0 0.7037019
vn 0.7037019 0 0.7037019
vn 0.8274658 0 0.552895
vn 0.8274658 0 0.552895
vn 0.8274658 0 0.552895
vn 0.8274658 0 0.552895
vn 0.9194307 0 0.3808407
vn 0.9194307 0 0.3808407
vn 0.9194307 0 0.3808407
vn 0.9194307 0 0.3808407
vn 0.9760625 0 0.1941509
vn 0.9760625 0 0.1941509
vn 0.9760625 0 0.1941509
vn 0.9760625 0 0.1941509
vn 0.9951847 0 -5.960464E-08
vn 0.9951847 0 -5.960464E-08
vn 0.9951847 0 -5.960464E-08
vn 0.9951847 0 -5.960464E-08
vn 0.9760625 0 -0.194151
vn 0.9760625 0 -0.194151
vn 0.9760625 0 -0.194151
vn 0.9760625 0 -0.194151
vn 0.9194307 0 -0.3808408
vn 0.9194307 0 -0.3808408
vn 0.9194307 0 -0.3808408
vn 0.9194307 0 -0.3808408
vn 0.8274659 0 -0.552895
vn 0.8274659 0 -0.552895
vn 0.8274659 0 -0.552895
vn 0.8274659 0 -0.552895
vn 0.703702 0 -0.7037018
vn 0.703702 0 -0.7037018
vn 0.703702 0 -0.7037018
vn 0.703702 0 -0.7037018
vn 0.5528952 0 -0.8274657
vn 0.5528952 0 -0.8274657
vn 0.5528952 0 -0.8274657
vn 0.5528952 0 -0.8274657
vn 0.3808408 0 -0.9194307
vn 0.3808408 0 -0.9194307
vn 0.3808408 0 -0.9194307
vn 0.3808408 0 -0.9194307
vn 0.1941509 0 -0.9760625
vn 0.1941509 0 -0.9760625
vn 0.1941509 0 -0.9760625
vn 0.1941509 0 -0.9760625
vn 0 0 -0.9951847
vn 0 0 -0.9951847
vn 0 0 -0.9951847
vn 0 0 -0.9951847
vn -0.194151 0 -0.9760625
vn -0.194151 0 -0.9760625
vn -0.194151 0 -0.9760625
vn -0.194151 0 -0.9760625
vn -0.3808408 0 -0.9194307
vn -0.3808408 0 -0.9194307
vn -0.3808408 0 -0.9194307
vn -0.3808408 0 -0.9194307
vn -0.5528949 0 -0.8274659
vn -0.5528949 0 -0.8274659
vn -0.5528949 0 -0.8274659
vn -0.5528949 0 -0.8274659
vn -0.7037017 0 -0.7037021
vn -0.7037017 0 -0.7037021
vn -0.7037017 0 -0.7037021
vn -0.7037017 0 -0.7037021
vn -0.8274658 0 -0.5528952
vn -0.8274658 0 -0.5528952
vn -0.8274658 0 -0.5528952
vn -0.8274658 0 -0.5528952
vn -0.9194309 0 -0.3808407
vn -0.9194309 0 -0.3808407
vn -0.9194309 0 -0.3808407
vn -0.9194309 0 -0.3808407
vn -0.9760625 0 -0.1941508
vn -0.9760625 0 -0.1941508
vn -0.9760625 0 -0.1941508
vn -0.9760625 0 -0.1941508
vn -0.9951847 0 1.266599E-07
vn -0.9951847 0 1.266599E-07
vn 0 -0.9999999 0
vn 0 -0.9999999 0
vn 0 -0.9999999 0
vn 0 0.9999999 0
vn 0 0.9999999 0
vn 0 0.9999999 0
vn 0 -1 0
vn 0 -1 0
vn 0 -1 0
vn 0 1 0
vn 0 1 0
vn 0 1 0
vn 0 -1 0
vn 0 -1 0
vn 0 -1 0
vn 0 1 0
vn 0 1 0
vn 0 1 0
vn 0 -1 0
vn 0 -1 0
vn 0 -1 0
vn 0 1 0
vn 0 1 0
vn 0 1 0
vn 0 -1 0
vn 0 -1 0
vn 0 -1 0
vn 0 1 0
vn 0 1 0
vn 0 1 0
vn 0 -0.9999999 0
vn 0 -0.9999999 0
vn 0 -0.9999999 0
vn 0 0.9999999 0
vn 0 0.9999999 0
vn 0 0.9999999 0
vn 0 -1 0
vn 0 -1 0
vn 0 -1 0
vn 0 1 0
vn 0 1 0
vn 0 1 0
vn 0 -1 0
vn 0 -1 0
vn 0 -1 0
vn 0 1 0
vn 0 1 0
vn 0 1 0
vn 0 -1 0
vn 0 -1 0
vn 0 -1 0
vn 0 1 0
vn 0 1 0
vn 0 1 0
vn 0 -1 0
vn 0 -1 0
vn 0 -1 0
vn 0 1 0
vn 0 1 0
vn 0 1 0
vn 0 -1 0
vn 0 -1 0
vn 0 -1 0
vn 0 1 0
vn 0 1 0
vn 0 1 0
vn 0 -1 0
vn 0 -1 0
vn 0 -1 0
vn 0 1 0
vn 0 1 0
vn 0 1 0
vn 0 -1 0
vn 0 -1 0
vn 0 -1 0
vn 0 1 0
vn 0 1 0
vn 0 1 0
vn 0 -1 0
vn 0 -1 0
vn 0 -1 0
vn 0 1 0
vn 0 1 0
vn 0 1 0
vn 0 -1 0
vn 0 -1 0
vn 0 -1 0
vn 0 0.9999999 0
vn 0 0.9999999 0
vn 0 0.9999999 0
vn 0 -1 0
vn 0 -1 0
vn 0 -1 0
vn 0 1 0
vn 0 1 0
vn 0 1 0
vn 0 -0.9999999 0
vn 0 -0.9999999 0
vn 0 -0.9999999 0
vn 0 0.9999999 0
vn 0 0.9999999 0
vn 0 0.9999999 0
vn 0 -0.9999999 0
vn 0 -0.9999999 0
vn 0 -0.9999999 0
vn 0 1 0
vn 0 1 0
vn 0 1 0
vn 0 -0.9999999 0
vn 0 -0.9999999 0
vn 0 -0.9999999 0
vn 0 0.9999999 0
vn 0 0.9999999 0
vn 0 0.9999999 0
vn 0 -1 0
vn 0 -1 0
vn 0 -1 0
vn 0 1 0
vn 0 1 0
vn 0 1 0
vn 0 -1 0
vn 0 -1 0
vn 0 -1 0
vn 0 1 0
vn 0 1 0
vn 0 1 0
vn 0 -0.9999999 0
vn 0 -0.9999999 0
vn 0 -0.9999999 0
vn 0 0.9999999 0
vn 0 0.9999999 0
vn 0 0.9999999 0
vn 0 -1 0
vn 0 -1 0
vn 0 -1 0
vn 0 1 0
vn 0 1 0
vn 0 1 0
vn 0 -1 0
vn 0 -1 0
vn 0 -1 0
vn 0 1 0
vn 0 1 0
vn 0 1 0
vn 0 -1 0
vn 0 -1 0
vn 0 -1 0
vn 0 1 0
vn 0 1 0
vn 0 1 0
vn 0 -0.9999999 0
vn 0 -0.9999999 0
vn 0 -0.9999999 0
vn 0 0.9999999 0
vn 0 0.9999999 0
vn 0 0.9999999 0
vn 0 -1 0
vn 0 -1 0
vn 0 -1 0
vn 0 1 0
vn 0 1 0
vn 0 1 0
vn 0 -1 0
vn 0 -1 0
vn 0 -1 0
vn 0 1 0
vn 0 1 0
vn 0 1 0
vn 0 -1 0
vn 0 -1 0
vn 0 -1 0
vn 0 1 0
vn 0 1 0
vn 0 1 0
vn 0 -0.9999999 0
vn 0 -0.9999999 0
vn 0 -0.9999999 0
vn 0 0.9999999 0
vn 0 0.9999999 0
vn 0 0.9999999 0
vn 0 -1 0
vn 0 -1 0
vn 0 -1 0
vn 0 1 0
vn 0 1 0
vn 0 1 0
vn 0 -0.9999999 0
vn 0 -0.9999999 0
vn 0 -0.9999999 0
vn 0 0.9999999 0
vn 0 0.9999999 0
vn 0 0.9999999 0

vt -0.7841383 0
vt -0.7841383 0.25
vt 0.784136 0
vt 0.784136 0.25
vt -0.7841367 0
vt -0.7841367 0.25
vt 0.7841377 0
vt 0.7841377 0.25
vt -0.7841366 0
vt -0.7841366 0.25
vt 0.7841375 0
vt 0.7841375 0.25
vt -0.7841374 0
vt -0.7841374 0.25
vt 0.7841367 0
vt 0.7841367 0.25
vt -0.7841367 0
vt -0.7841367 0.25
vt 0.7841374 0
vt 0.7841374 0.25
vt -0.784138 0
vt -0.784138 0.25
vt 0.7841364 0
vt 0.7841364 0.25
vt -0.7841368 0
vt -0.7841368 0.25
vt 0.7841371 0
vt 0.7841371 0.25
vt -0.7841365 0
vt -0.7841365 0.25
vt 0.7841384 0
vt 0.7841384 0.25
vt -0.7841381 0
vt -0.7841381 0.25
vt 0.7841358 0
vt 0.7841358 0.25
vt -0.7841352 0
vt -0.7841352 0.25
vt 0.7841387 0
vt 0.7841387 0.25
vt -0.7841372 0
vt -0.7841372 0.25
vt 0.7841369 0
vt 0.7841369 0.25
vt -0.7841387 0
vt -0.7841387 0.25
vt 0.7841361 0
vt 0.7841361 0.25
vt -0.7841361 0
vt -0.7841361 0.25
vt 0.7841387 0
vt 0.7841387 0.25
vt -0.7841373 0
vt -0.7841373 0.25
vt 0.7841359 0
vt 0.7841359 0.25
vt -0.7841361 0
vt -0.7841361 0.25
vt 0.7841389 0
vt 0.7841389 0.25
vt -0.7841385 0
vt -0.7841385 0.25
vt 0.7841364 0
vt 0.7841364 0.25
vt -0.7841358 0
vt -0.7841358 0.25
vt 0.7841371 0
vt 0.7841371 0.25
vt -0.7841393 0
vt -0.7841393 0.25
vt 0.7841356 0
vt 0.7841356 0.25
vt -0.7841374 0
vt -0.7841374 0.25
vt 0.7841375 0
vt 0.7841375 0.25
vt -0.7841361 0
vt -0.7841361 0.25
vt 0.7841367 0
vt 0.7841367 0.25
vt -0.7841361 0
vt -0.7841361 0.25
vt 0.784137 0
vt 0.784137 0.25
vt -0.7841361 0
vt -0.7841361 0.25
vt 0.784139 0
vt 0.784139 0.25
vt -0.7841393 0
vt -0.7841393 0.25
vt 0.7841356 0
vt 0.7841356 0.25
vt -0.7841367 0
vt -0.7841367 0.25
vt 0.7841381 0
vt 0.7841381 0.25
vt -0.7841379 0
vt -0.7841379 0.25
vt 0.784137 0
vt 0.784137 0.25
vt -0.7841377 0
vt -0.7841377 0.25
vt 0.7841373 0
vt 0.7841373 0.25
vt -0.7841351 0
vt -0.7841351 0.25
vt 0.784136 0
vt 0.784136 0.25
vt -0.7841378 0
vt -0.7841378 0.25
vt 0.7841367 0
vt 0.7841367 0.25
vt -0.7841357 0
vt -0.7841357 0.25
vt 0.7841394 0
vt 0.7841394 0.25
vt -0.7841373 0
vt -0.7841373 0.25
vt 0.7841377 0
vt 0.7841377 0.25
vt -0.784138 0
vt -0.784138 0.25
vt 0.784137 0
vt 0.784137 0.25
vt -0.7841373 0
vt -0.7841373 0.25
vt 0.7841363 0
vt 0.7841363 0.25
vt -8 0
vt 0 0
vt -7.846282 1.560723
vt 8 0
vt 0 0
vt 7.846282 1.560723
vt -7.846282 1.560723
vt 0 0
vt -7.391036 3.061468
vt 7.846282 1.560723
vt 0 0
vt 7.391036 3.061468
vt -7.391036 3.061468
vt 0 0
vt -6.651757 4.444562
vt 7.391036 3.061468
vt 0 0
vt 6.651757 4.444562
vt -6.651757 4.444562
vt 0 0
vt -5.656854 5.656854
vt 6.651757 4.444562
vt 0 0
vt 5.656854 5.656854
vt -5.656854 5.656854
vt 0 0
vt -4.444562 6.651757
vt 5.656854 5.656854
vt 0 0
vt 4.444562 6.651757
vt -4.444562 6.651757
vt 0 0
vt -3.061467 7.391036
vt 4.444562 6.651757
vt 0 0
vt 3.061467 7.391036
vt -3.061467 7.391036
vt 0 0
vt -1.560723 7.846282
vt 3.061467 7.391036
vt 0 0
vt 1.560723 7.846282
vt -1.560723 7.846282
vt 0 0
vt 3.496911E-07 8
vt 1.560723 7.846282
vt 0 0
vt -3.496911E-07 8
vt 3.496911E-07 8
vt 0 0
vt 1.560723 7.846282
vt -3.496911E-07 8
vt 0 0
vt -1.560723 7.846282
vt 1.560723 7.846282
vt 0 0
vt 3.061467 7.391037
vt -1.560723 7.846282
vt 0 0
vt -3.061467 7.391037
vt 3.061467 7.391037
vt 0 0
vt 4.444561 6.651757
vt -3.061467 7.391037
vt 0 0
vt -4.444561 6.651757
vt 4.444561 6.651757
vt 0 0
vt 5.656854 5.656854
vt -4.444561 6.651757
vt 0 0
vt -5.656854 5.656854
vt 5.656854 5.656854
vt 0 0
vt 6.651757 4.444561
vt -5.656854 5.656854
vt 0 0
vt -6.651757 4.444561
vt 6.651757 4.444561
vt 0 0
vt 7.391036 3.061468
vt -6.651757 4.444561
vt 0 0
vt -7.391036 3.061468
vt 7.391036 3.061468
vt 0 0
vt 7.846282 1.560722
vt -7.391036 3.061468
vt 0 0
vt -7.846282 1.560722
vt 7.846282 1.560722
vt 0 0
vt 8 -6.993822E-07
vt -7.846282 1.560722
vt 0 0
vt -8 -6.993822E-07
vt 8 -6.993822E-07
vt 0 0
vt 7.846282 -1.560722
vt -8 -6.993822E-07
vt 0 0
vt -7.846282 -1.560722
vt 7.846282 -1.560722
vt 0 0
vt 7.391036 -3.061467
vt -7.846282 -1.560722
vt 0 0
vt -7.391036 -3.061467
vt 7.391036 -3.061467
vt 0 0
vt 6.651756 -4.444562
vt -7.391036 -3.061467
vt 0 0
vt -6.651756 -4.444562
vt 6.651756 -4.444562
vt 0 0
vt 5.656855 -5.656854
vt -6.651756 -4.444562
vt 0 0
vt -5.656855 -5.656854
vt 5.656855 -5.656854
vt 0 0
vt 4.444563 -6.651756
vt -5.656855 -5.656854
vt 0 0
vt -4.444563 -6.651756
vt 4.444563 -6.651756
vt 0 0
vt 3.061469 -7.391036
vt -4.444563 -6.651756
vt 0 0
vt -3.061469 -7.391036
vt 3.061469 -7.391036
vt 0 0
vt 1.560723 -7.846282
vt -3.061469 -7.391036
vt 0 0
vt -1.560723 -7.846282
vt 1.560723 -7.846282
vt 0 0
vt -9.539905E-08 -8
vt -1.560723 -7.846282
vt 0 0
vt 9.539905E-08 -8
vt -9.539905E-08 -8
vt 0 0
vt -1.560723 -7.846282
vt 9.539905E-08 -8
vt 0 0
vt 1.560723 -7.846282
vt -1.560723 -7.846282
vt 0 0
vt -3.061469 -7.391036
vt 1.560723 -7.846282
vt 0 0
vt 3.061469 -7.391036
vt -3.061469 -7.391036
vt 0 0
vt -4.444561 -6.651758
vt 3.061469 -7.391036
vt 0 0
vt 4.444561 -6.651758
vt -4.444561 -6.651758
vt 0 0
vt -5.656853 -5.656855
vt 4.444561 -6.651758
vt 0 0
vt 5.656853 -5.656855
vt -5.656853 -5.656855
vt 0 0
vt -6.651757 -4.444562
vt 5.656853 -5.656855
vt 0 0
vt 6.651757 -4.444562
vt -6.651757 -4.444562
vt 0 0
vt -7.391037 -3.061467
vt 6.651757 -4.444562
vt 0 0
vt 7.391037 -3.061467
vt -7.391037 -3.061467
vt 0 0
vt -7.846282 -1.560722
vt 7.391037 -3.061467
vt 0 0
vt 7.846282 -1.560722
vt -7.846282 -1.560722
vt 0 0
vt -8 0
vt 7.846282 -1.560722
vt 0 0
vt 8 0

g Cylinder_0
usemtl Default_Prototype
f 3/3/3 4/4/4 2/2/2 1/1/1
f 7/7/7 8/8/8 6/6/6 5/5/5
f 11/11/11 12/12/12 10/10/10 9/9/9
f 15/15/15 16/16/16 14/14/14 13/13/13
f 19/19/19 20/20/20 18/18/18 17/17/17
f 23/23/23 24/24/24 22/22/22 21/21/21
f 27/27/27 28/28/28 26/26/26 25/25/25
f 31/31/31 32/32/32 30/30/30 29/29/29
f 35/35/35 36/36/36 34/34/34 33/33/33
f 39/39/39 40/40/40 38/38/38 37/37/37
f 43/43/43 44/44/44 42/42/42 41/41/41
f 47/47/47 48/48/48 46/46/46 45/45/45
f 51/51/51 52/52/52 50/50/50 49/49/49
f 55/55/55 56/56/56 54/54/54 53/53/53
f 59/59/59 60/60/60 58/58/58 57/57/57
f 63/63/63 64/64/64 62/62/62 61/61/61
f 67/67/67 68/68/68 66/66/66 65/65/65
f 71/71/71 72/72/72 70/70/70 69/69/69
f 75/75/75 76/76/76 74/74/74 73/73/73
f 79/79/79 80/80/80 78/78/78 77/77/77
f 83/83/83 84/84/84 82/82/82 81/81/81
f 87/87/87 88/88/88 86/86/86 85/85/85
f 91/91/91 92/92/92 90/90/90 89/89/89
f 95/95/95 96/96/96 94/94/94 93/93/93
f 99/99/99 100/100/100 98/98/98 97/97/97
f 103/103/103 104/104/104 102/102/102 101/101/101
f 107/107/107 108/108/108 106/106/106 105/105/105
f 111/111/111 112/112/112 110/110/110 109/109/109
f 115/115/115 116/116/116 114/114/114 113/113/113
f 119/119/119 120/120/120 118/118/118 117/117/117
f 123/123/123 124/124/124 122/122/122 121/121/121
f 127/127/127 128/128/128 126/126/126 125/125/125

g Cylinder_1
usemtl Default_Prototype
f 129/129/129 130/130/130 131/131/131
f 135/135/135 136/136/136 137/137/137
f 141/141/141 142/142/142 143/143/143
f 147/147/147 148/148/148 149/149/149
f 153/153/153 154/154/154 155/155/155
f 159/159/159 160/160/160 161/161/161
f 165/165/165 166/166/166 167/167/167
f 171/171/171 172/172/172 173/173/173
f 177/177/177 178/178/178 179/179/179
f 183/183/183 184/184/184 185/185/185
f 189/189/189 190/190/190 191/191/191
f 195/195/195 196/196/196 197/197/197
f 201/201/201 202/202/202 203/203/203
f 207/207/207 208/208/208 209/209/209
f 213/213/213 214/214/214 215/215/215
f 219/219/219 220/220/220 221/221/221
f 225/225/225 226/226/226 227/227/227
f 231/231/231 232/232/232 233/233/233
f 237/237/237 238/238/238 239/239/239
f 243/243/243 244/244/244 245/245/245
f 249/249/249 250/250/250 251/251/251
f 255/255/255 256/256/256 257/257/257
f 261/261/261 262/262/262 263/263/263
f 267/267/267 268/268/268 269/269/269
f 273/273/273 274/274/274 275/275/275
f 279/279/279 280/280/280 281/281/281
f 285/285/285 286/286/286 287/287/287
f 291/291/291 292/292/292 293/293/293
f 297/297/297 298/298/298 299/299/299
f 303/303/303 304/304/304 305/305/305
f 309/309/309 310/310/310 311/311/311
f 315/315/315 316/316/316 317/317/317
f 134/134/134 133/133/133 132/132/132
f 140/140/140 139/139/139 138/138/138
f 146/146/146 145/145/145 144/144/144
f 152/152/152 151/151/151 150/150/150
f 158/158/158 157/157/157 156/156/156
f 164/164/164 163/163/163 162/162/162
f 170/170/170 169/169/169 168/168/168
f 176/176/176 175/175/175 174/174/174
f 182/182/182 181/181/181 180/180/180
f 188/188/188 187/187/187 186/186/186
f 194/194/194 193/193/193 192/192/192
f 200/200/200 199/199/199 198/198/198
f 206/206/206 205/205/205 204/204/204
f 212/212/212 211/211/211 210/210/210
f 218/218/218 217/217/217 216/216/216
f 224/224/224 223/223/223 222/222/222
f 230/230/230 229/229/229 228/228/228
f 236/236/236 235/235/235 234/234/234
f 242/242/242 241/241/241 240/240/240
f 248/248/248 247/247/247 246/246/246
f 254/254/254 253/253/253 252/252/252
f 260/260/260 259/259/259 258/258/258
f 266/266/266 265/265/265 264/264/264
f 272/272/272 271/271/271 270/270/270
f 278/278/278 277/277/277 276/276/276
f 284/284/284 283/283/283 282/282/282
f 290/290/290 289/289/289 288/288/288
f 296/296/296 295/295/295 294/294/294
f 302/302/302 301/301/301 300/300/300
f 308/308/308 307/307/307 306/306/306
f 314/314/314 313/313/313 312/312/312
f 320/320/320 319/319/319 318/318/318

